<svg width="39" height="39" viewBox="0 0 39 39" fill="none" xmlns="http://www.w3.org/2000/svg">
<path fill-rule="evenodd" clip-rule="evenodd" d="M16.9284 30.8455C17.6791 31.6817 18.6428 32.141 19.6427 32.141C20.647 32.141 21.6165 31.6817 22.3686 30.844C22.7715 30.3991 23.4584 30.3629 23.9033 30.7643C24.3497 31.1657 24.3859 31.8541 23.9845 32.299C22.8135 33.5989 21.273 34.3148 19.6442 34.3148H19.6413C18.0167 34.3134 16.4791 33.5975 15.3126 32.2976C14.9111 31.8527 14.9474 31.1643 15.3937 30.7643C15.8401 30.3614 16.527 30.3977 16.9284 30.8455Z" fill="#F21C29" stroke="#F21C29" stroke-width="0.7884"/>
<path d="M19.4999 3.93704C14.2506 3.93704 9.97981 8.20788 9.97933 13.4576C9.97933 17.5687 9.97933 20.2857 6.7291 23.536C6.18469 24.0804 6.02181 24.8994 6.31623 25.6113C6.61113 26.3226 7.30495 26.7867 8.07557 26.7871H21.5792C21.4729 27.0865 25.2326 25.1475 25.2326 25.4832C25.2326 27.0603 24.2341 26.0617 25.8112 26.0617C27.3883 26.0617 25.2326 27.0603 25.2326 25.4832C25.2326 25.1475 18.7439 26.7846 17.9553 26.7871L30.9247 26.7866C31.6949 26.7866 32.3892 26.323 32.6836 25.6112C32.9785 24.8999 32.8156 24.0808 32.2707 23.5359C29.02 20.2852 29.0205 15.6737 29.0205 13.4575C29.02 8.20788 24.7491 3.93704 19.4999 3.93704ZM27.7916 26.5952C27.7916 27.1204 25.0477 25.6147 24.5226 25.6147C23.9975 25.6147 21.9096 26.6902 21.9096 26.1651C21.9096 25.64 21.3434 26.7521 21.8685 26.7521C22.3936 26.7521 27.7916 26.0701 27.7916 26.5952ZM27.1166 13.4575C27.1166 15.7716 27.1166 21.0738 30.9252 24.8823C27.1165 24.8824 11.8841 24.8824 8.07552 24.8824C11.8836 21.0743 11.8836 17.6643 11.8837 13.458C11.8837 9.25183 15.2937 5.84181 19.5004 5.84133C23.707 5.84091 27.117 9.25093 27.1166 13.4575Z" fill="#F21C29"/>
<path d="M25.2326 25.4832C25.2326 25.1475 21.4729 27.0865 21.5792 26.7871L8.07557 26.7871C7.30495 26.7867 6.61113 26.3226 6.31623 25.6113C6.02181 24.8994 6.18469 24.0804 6.7291 23.536C9.97933 20.2857 9.97933 17.5687 9.97933 13.4576C9.97981 8.20788 14.2506 3.93704 19.4999 3.93704C24.7491 3.93704 29.02 8.20788 29.0205 13.4575C29.0205 15.6737 29.02 20.2852 32.2707 23.5359C32.8156 24.0808 32.9785 24.8999 32.6836 25.6112C32.3892 26.323 31.6949 26.7866 30.9247 26.7866L17.9553 26.7871C18.7439 26.7846 25.2326 25.1475 25.2326 25.4832ZM25.2326 25.4832C25.2326 27.0603 24.2341 26.0617 25.8112 26.0617C27.3883 26.0617 25.2326 27.0603 25.2326 25.4832ZM27.7916 26.5952C27.7916 27.1204 25.0477 25.6147 24.5226 25.6147C23.9975 25.6147 21.9096 26.6902 21.9096 26.1651C21.9096 25.64 21.3434 26.7521 21.8685 26.7521C22.3936 26.7521 27.7916 26.0701 27.7916 26.5952ZM27.1166 13.4575C27.1166 15.7716 27.1166 21.0738 30.9252 24.8823C27.1165 24.8824 11.8841 24.8824 8.07552 24.8824C11.8836 21.0743 11.8836 17.6643 11.8837 13.458C11.8837 9.25183 15.2937 5.84181 19.5004 5.84133C23.707 5.84091 27.117 9.25093 27.1166 13.4575Z" stroke="#F21C29" stroke-width="1.26144"/>
</svg>
