<svg width="171" height="50" viewBox="0 0 171 50" fill="none" xmlns="http://www.w3.org/2000/svg">
<path d="M169.332 43.5179C169.332 46.1394 167.164 48.2628 164.483 48.2628H5.80114C3.12122 48.2628 0.945923 46.1394 0.945923 43.5179V5.67884C0.945923 3.05861 3.12122 0.927734 5.80114 0.927734H164.482C167.164 0.927734 169.331 3.05861 169.331 5.67884L169.332 43.5179Z" fill="black"/>
<path d="M163.971 0.985386C166.891 0.985386 169.267 3.30199 169.267 6.14894V43.0425C169.267 45.8894 166.891 48.206 163.971 48.206H6.30659C3.38664 48.206 1.01063 45.8894 1.01063 43.0425V6.14894C1.01063 3.30199 3.38664 0.985386 6.30659 0.985386H163.971ZM163.971 2.28882e-05H6.30659C2.83954 2.28882e-05 0 2.76857 0 6.14894V43.0425C0 46.4229 2.83954 49.1914 6.30659 49.1914H163.971C167.438 49.1914 170.278 46.4229 170.278 43.0425V6.14894C170.278 2.76857 167.438 2.28882e-05 163.971 2.28882e-05Z" fill="#A6A6A6"/>
<path d="M38.001 24.331C37.9644 20.3674 41.3296 18.4391 41.4835 18.3493C39.5776 15.6401 36.6236 15.2699 35.5855 15.2404C33.1045 14.9858 30.6979 16.6879 29.4341 16.6879C28.145 16.6879 26.1988 15.265 24.1012 15.3068C21.402 15.3474 18.8769 16.8711 17.4919 19.2372C14.6338 24.0616 16.7654 31.1514 19.5037 35.051C20.8735 36.9609 22.4741 39.0933 24.5692 39.0183C26.6188 38.9359 27.3845 37.7442 29.8579 37.7442C32.3086 37.7442 33.0276 39.0183 35.1643 38.9703C37.364 38.9359 38.7489 37.0519 40.0708 35.1248C41.6537 32.9358 42.2894 30.78 42.3147 30.6693C42.263 30.6521 38.0426 29.0816 38.001 24.331Z" fill="white"/>
<path d="M33.9647 12.6751C35.0671 11.3309 35.8214 9.50223 35.612 7.64648C34.0165 7.71535 32.0211 8.72255 30.872 10.0372C29.8554 11.1956 28.9472 13.0944 29.1818 14.8801C30.9742 15.0104 32.8144 13.9983 33.9647 12.6751Z" fill="white"/>
<path d="M61.8678 12.3117C61.8678 13.7591 61.4226 14.8487 60.5333 15.5805C59.7097 16.2556 58.5392 16.5938 57.0231 16.5938C56.2713 16.5938 55.6281 16.5618 55.0895 16.4979V8.58913C55.792 8.47844 56.5488 8.42188 57.3662 8.42188C58.8104 8.42188 59.8989 8.72809 60.633 9.34052C61.4554 10.0329 61.8678 11.0229 61.8678 12.3117ZM60.474 12.3473C60.474 11.409 60.2193 10.6896 59.7097 10.1878C59.2001 9.68732 58.4559 9.43645 57.4759 9.43645C57.0597 9.43645 56.7052 9.4635 56.4113 9.52007V15.5325C56.574 15.5571 56.8717 15.5682 57.3044 15.5682C58.3159 15.5682 59.0967 15.2939 59.6466 14.7454C60.1966 14.1969 60.474 13.3976 60.474 12.3473Z" fill="white"/>
<path d="M69.2578 13.5742C69.2578 14.4658 68.9967 15.1963 68.4746 15.7693C67.9271 16.3584 67.2019 16.6523 66.2963 16.6523C65.4234 16.6523 64.7284 16.3707 64.21 15.805C63.6929 15.2405 63.4343 14.5285 63.4343 13.6701C63.4343 12.7723 63.7005 12.0357 64.2353 11.4639C64.7701 10.892 65.489 10.6055 66.3946 10.6055C67.2675 10.6055 67.9688 10.8871 68.4998 11.4516C69.0043 12 69.2578 12.7084 69.2578 13.5742ZM67.8868 13.616C67.8868 13.081 67.7682 12.6223 67.5324 12.2399C67.2549 11.7775 66.8601 11.5463 66.3467 11.5463C65.8157 11.5463 65.4121 11.7775 65.1346 12.2399C64.8975 12.6223 64.7802 13.0884 64.7802 13.6393C64.7802 14.1743 64.8987 14.633 65.1346 15.0155C65.4209 15.4779 65.8195 15.7091 66.3341 15.7091C66.8386 15.7091 67.2347 15.4742 67.5197 15.0032C67.7644 14.6133 67.8868 14.1509 67.8868 13.616Z" fill="white"/>
<path d="M79.1668 10.7227L77.3064 16.5199H76.0955L75.3248 14.0025C75.1293 13.3741 74.9704 12.7493 74.8468 12.1295H74.8228C74.708 12.7666 74.5491 13.3901 74.3448 14.0025L73.5262 16.5199H72.3014L70.552 10.7227H71.9104L72.5827 13.4786C72.7454 14.1304 72.8791 14.7514 72.9863 15.3393H73.0103C73.1087 14.8547 73.2714 14.2374 73.501 13.4909L74.3448 10.7239H75.4219L76.2304 13.4319C76.426 14.0923 76.5849 14.7281 76.7072 15.3405H76.7438C76.8334 14.7441 76.9683 14.1083 77.1474 13.4319L77.8689 10.7239H79.1668V10.7227Z" fill="white"/>
<path d="M86.0195 16.5225H84.6976V13.2021C84.6976 12.1789 84.2991 11.6673 83.4994 11.6673C83.1071 11.6673 82.7905 11.8075 82.5446 12.0891C82.3011 12.3707 82.1775 12.7028 82.1775 13.0828V16.5212H80.8557V12.3818C80.8557 11.8727 80.8393 11.3205 80.8077 10.7228H81.9694L82.0312 11.6292H82.0678C82.2217 11.3475 82.4512 11.1151 82.7527 10.9294C83.1109 10.713 83.512 10.6035 83.9509 10.6035C84.5059 10.6035 84.9676 10.7781 85.3346 11.1286C85.7912 11.5578 86.0195 12.1985 86.0195 13.0496V16.5225Z" fill="white"/>
<path d="M89.6647 16.5217H88.3441V8.06445H89.6647V16.5217Z" fill="white"/>
<path d="M97.447 13.5742C97.447 14.4658 97.1859 15.1963 96.6638 15.7693C96.1164 16.3584 95.3898 16.6523 94.4855 16.6523C93.6114 16.6523 92.9164 16.3707 92.3992 15.805C91.8821 15.2405 91.6235 14.5285 91.6235 13.6701C91.6235 12.7723 91.8897 12.0357 92.4245 11.4639C92.9593 10.892 93.6782 10.6055 94.5826 10.6055C95.4567 10.6055 96.1567 10.8871 96.689 11.4516C97.1935 12 97.447 12.7084 97.447 13.5742ZM96.0747 13.616C96.0747 13.081 95.9562 12.6223 95.7203 12.2399C95.4441 11.7775 95.048 11.5463 94.5359 11.5463C94.0036 11.5463 93.6 11.7775 93.3238 12.2399C93.0867 12.6223 92.9694 13.0884 92.9694 13.6393C92.9694 14.1743 93.0879 14.633 93.3238 15.0155C93.6101 15.4779 94.0087 15.7091 94.5233 15.7091C95.0278 15.7091 95.4226 15.4742 95.7077 15.0032C95.9536 14.6133 96.0747 14.1509 96.0747 13.616Z" fill="white"/>
<path d="M103.844 16.5207H102.658L102.559 15.853H102.523C102.116 16.3855 101.537 16.6523 100.786 16.6523C100.224 16.6523 99.7704 16.4765 99.4286 16.1272C99.1183 15.8099 98.9631 15.4152 98.9631 14.9466C98.9631 14.2383 99.2658 13.6984 99.8751 13.3245C100.483 12.9507 101.338 12.7674 102.439 12.776V12.6678C102.439 11.9041 102.028 11.5229 101.204 11.5229C100.618 11.5229 100.101 11.6668 99.6543 11.9521L99.3857 11.106C99.9381 10.7727 100.621 10.6055 101.425 10.6055C102.979 10.6055 103.759 11.4048 103.759 13.0035V15.1385C103.759 15.7177 103.788 16.1789 103.844 16.5207ZM102.472 14.5285V13.6344C101.014 13.6098 100.285 13.9997 100.285 14.8027C100.285 15.1053 100.368 15.3315 100.539 15.4828C100.709 15.6341 100.926 15.7091 101.184 15.7091C101.474 15.7091 101.746 15.6193 101.993 15.441C102.241 15.2614 102.394 15.0339 102.451 14.7548C102.465 14.692 102.472 14.6158 102.472 14.5285Z" fill="white"/>
<path d="M111.356 16.5217H110.183L110.121 15.5907H110.084C109.71 16.2991 109.071 16.6533 108.175 16.6533C107.458 16.6533 106.862 16.379 106.389 15.8305C105.916 15.2821 105.68 14.57 105.68 13.6956C105.68 12.7573 105.936 11.9973 106.45 11.4168C106.949 10.8757 107.559 10.6052 108.286 10.6052C109.084 10.6052 109.643 10.8671 109.961 11.3923H109.986V8.06445H111.309V14.9599C111.309 15.5243 111.324 16.0445 111.356 16.5217ZM109.986 14.0769V13.1103C109.986 12.943 109.973 12.8077 109.949 12.7044C109.875 12.3945 109.715 12.1338 109.471 11.9235C109.225 11.7132 108.929 11.6075 108.587 11.6075C108.094 11.6075 107.708 11.7981 107.424 12.1805C107.143 12.563 107 13.0512 107 13.6477C107 14.2208 107.135 14.6856 107.406 15.0435C107.693 15.4247 108.079 15.6153 108.562 15.6153C108.996 15.6153 109.343 15.4567 109.606 15.1382C109.861 14.8443 109.986 14.4901 109.986 14.0769Z" fill="white"/>
<path d="M122.661 13.5742C122.661 14.4658 122.4 15.1963 121.877 15.7693C121.33 16.3584 120.606 16.6523 119.699 16.6523C118.828 16.6523 118.133 16.3707 117.613 15.805C117.096 15.2405 116.837 14.5285 116.837 13.6701C116.837 12.7723 117.103 12.0357 117.638 11.4639C118.173 10.892 118.892 10.6055 119.799 10.6055C120.67 10.6055 121.373 10.8871 121.903 11.4516C122.407 12 122.661 12.7084 122.661 13.5742ZM121.291 13.616C121.291 13.081 121.172 12.6223 120.937 12.2399C120.658 11.7775 120.264 11.5463 119.75 11.5463C119.22 11.5463 118.816 11.7775 118.538 12.2399C118.3 12.6223 118.183 13.0884 118.183 13.6393C118.183 14.1743 118.302 14.633 118.538 15.0155C118.824 15.4779 119.222 15.7091 119.737 15.7091C120.242 15.7091 120.639 15.4742 120.924 15.0032C121.167 14.6133 121.291 14.1509 121.291 13.616Z" fill="white"/>
<path d="M129.768 16.5225H128.448V13.2021C128.448 12.1789 128.049 11.6673 127.248 11.6673C126.856 11.6673 126.539 11.8075 126.295 12.0891C126.05 12.3707 125.928 12.7028 125.928 13.0828V16.5212H124.604V12.3818C124.604 11.8727 124.589 11.3205 124.558 10.7228H125.718L125.78 11.6292H125.817C125.972 11.3475 126.201 11.1151 126.501 10.9294C126.861 10.713 127.261 10.6035 127.701 10.6035C128.255 10.6035 128.716 10.7781 129.083 11.1286C129.541 11.5578 129.768 12.1985 129.768 13.0496V16.5225Z" fill="white"/>
<path d="M138.664 11.6904H137.209V14.5066C137.209 15.2223 137.467 15.5802 137.98 15.5802C138.217 15.5802 138.413 15.5605 138.569 15.5199L138.603 16.4976C138.342 16.5936 137.998 16.6415 137.576 16.6415C137.054 16.6415 136.648 16.4866 136.354 16.1767C136.059 15.8667 135.912 15.3453 135.912 14.6136V11.6904H135.043V10.725H135.912V9.66248L137.208 9.28125V10.7238H138.663V11.6904H138.664Z" fill="white"/>
<path d="M145.662 16.5217H144.339V13.2259C144.339 12.1867 143.941 11.6665 143.142 11.6665C142.529 11.6665 142.11 11.9678 141.881 12.5704C141.842 12.6971 141.819 12.852 141.819 13.034V16.5205H140.498V8.06445H141.819V11.5583H141.844C142.26 10.9225 142.857 10.6052 143.63 10.6052C144.178 10.6052 144.631 10.7798 144.99 11.1303C145.438 11.5669 145.662 12.2162 145.662 13.0746V16.5217Z" fill="white"/>
<path d="M152.881 13.3472C152.881 13.5784 152.863 13.7727 152.831 13.9314H148.867C148.885 14.5045 149.074 14.941 149.441 15.2436C149.777 15.5141 150.209 15.6494 150.739 15.6494C151.325 15.6494 151.86 15.5584 152.342 15.3752L152.549 16.2704C151.985 16.509 151.322 16.6283 150.554 16.6283C149.633 16.6283 148.908 16.3639 148.383 15.8351C147.856 15.3063 147.594 14.5967 147.594 13.7063C147.594 12.832 147.838 12.1039 148.329 11.5235C148.841 10.9037 149.533 10.5938 150.407 10.5938C151.262 10.5938 151.912 10.9037 152.351 11.5235C152.705 12.0154 152.881 12.6241 152.881 13.3472ZM151.619 13.014C151.629 12.6315 151.542 12.3019 151.363 12.024C151.134 11.6661 150.784 11.4866 150.311 11.4866C149.88 11.4866 149.528 11.6612 149.259 12.0117C149.04 12.2909 148.91 12.6241 148.867 13.014H151.619Z" fill="white"/>
<path d="M67.6633 38.7449H64.7989L63.2298 33.9377H57.7759L56.2812 38.7449H53.4924L58.8959 22.3789H62.2334L67.6633 38.7449ZM62.7568 31.9208L61.3378 27.6473C61.1877 27.2107 60.9065 26.1826 60.4915 24.5642H60.441C60.2758 25.2603 60.0097 26.2884 59.6439 27.6473L58.2501 31.9208H62.7568Z" fill="white"/>
<path d="M81.5593 32.6988C81.5593 34.7058 81.003 36.2923 79.8905 37.4569C78.8941 38.4936 77.6568 39.0113 76.1798 39.0113C74.5854 39.0113 73.4402 38.453 72.7427 37.3363H72.6922V43.5529H70.0031V30.8283C70.0031 29.5666 69.969 28.2716 69.9034 26.9434H72.2684L72.4185 28.8139H72.469C73.3658 27.4046 74.7267 26.7012 76.5531 26.7012C77.9809 26.7012 79.1729 27.2509 80.1264 28.3515C81.0825 29.4534 81.5593 30.9021 81.5593 32.6988ZM78.8197 32.7948C78.8197 31.6461 78.5548 30.6992 78.0225 29.954C77.4411 29.1767 76.6603 28.7881 75.6815 28.7881C75.0181 28.7881 74.4152 29.0046 73.8766 29.4313C73.3367 29.8617 72.9836 30.4237 72.8183 31.1198C72.7351 31.4445 72.6935 31.7101 72.6935 31.9191V33.8868C72.6935 34.7452 72.9634 35.4695 73.5032 36.0611C74.0431 36.6526 74.7444 36.9477 75.6071 36.9477C76.62 36.9477 77.4083 36.5665 77.9721 35.8065C78.5372 35.0453 78.8197 34.0418 78.8197 32.7948Z" fill="white"/>
<path d="M95.4804 32.6988C95.4804 34.7058 94.9241 36.2923 93.8104 37.4569C92.8152 38.4936 91.5779 39.0113 90.1009 39.0113C88.5066 39.0113 87.3613 38.453 86.665 37.3363H86.6146V43.5529H83.9255V30.8283C83.9255 29.5666 83.8914 28.2716 83.8258 26.9434H86.1908L86.3409 28.8139H86.3913C87.2869 27.4046 88.6478 26.7012 90.4755 26.7012C91.902 26.7012 93.094 27.2509 94.05 28.3515C95.0023 29.4534 95.4804 30.9021 95.4804 32.6988ZM92.7408 32.7948C92.7408 31.6461 92.4747 30.6992 91.9424 29.954C91.3609 29.1767 90.5827 28.7881 89.6026 28.7881C88.9379 28.7881 88.3363 29.0046 87.7964 29.4313C87.2566 29.8617 86.9047 30.4237 86.7394 31.1198C86.6575 31.4445 86.6146 31.7101 86.6146 31.9191V33.8868C86.6146 34.7452 86.8845 35.4695 87.4218 36.0611C87.9617 36.6514 88.663 36.9477 89.5282 36.9477C90.5411 36.9477 91.3294 36.5665 91.8932 35.8065C92.4583 35.0453 92.7408 34.0418 92.7408 32.7948Z" fill="white"/>
<path d="M111.045 34.1549C111.045 35.547 110.549 36.6796 109.554 37.554C108.461 38.5096 106.938 38.9867 104.982 38.9867C103.176 38.9867 101.728 38.6473 100.632 37.9672L101.255 35.7819C102.435 36.478 103.731 36.8272 105.142 36.8272C106.155 36.8272 106.943 36.6034 107.51 36.1582C108.073 35.713 108.355 35.1154 108.355 34.3701C108.355 33.706 108.123 33.1465 107.657 32.6927C107.194 32.2389 106.421 31.8171 105.341 31.4272C102.403 30.3586 100.934 28.793 100.934 26.7344C100.934 25.389 101.449 24.2859 102.48 23.4275C103.506 22.5679 104.876 22.1387 106.589 22.1387C108.116 22.1387 109.385 22.3982 110.398 22.9159L109.726 25.0533C108.78 24.5515 107.71 24.3006 106.513 24.3006C105.567 24.3006 104.828 24.5281 104.298 24.9807C103.851 25.3853 103.626 25.8784 103.626 26.4626C103.626 27.1095 103.882 27.6444 104.397 28.065C104.845 28.4536 105.658 28.8742 106.839 29.328C108.283 29.8949 109.344 30.5578 110.026 31.3178C110.706 32.0753 111.045 33.0235 111.045 34.1549Z" fill="white"/>
<path d="M119.936 28.912H116.972V34.6415C116.972 36.0988 117.494 36.8269 118.541 36.8269C119.022 36.8269 119.42 36.7863 119.736 36.7051L119.81 38.6961C119.28 38.8892 118.583 38.9864 117.719 38.9864C116.657 38.9864 115.827 38.6703 115.228 38.0394C114.631 37.4073 114.331 36.3473 114.331 34.858V28.9095H112.565V26.9419H114.331V24.7811L116.972 24.0039V26.9419H119.936V28.912Z" fill="white"/>
<path d="M133.31 32.7475C133.31 34.5615 132.778 36.0507 131.716 37.2153C130.602 38.4144 129.124 39.012 127.281 39.012C125.505 39.012 124.091 38.4377 123.037 37.2891C121.982 36.1405 121.455 34.6906 121.455 32.9431C121.455 31.1144 121.997 29.6165 123.086 28.4519C124.172 27.286 125.637 26.7031 127.48 26.7031C129.256 26.7031 130.685 27.2774 131.764 28.4273C132.795 29.5427 133.31 30.9828 133.31 32.7475ZM130.52 32.8324C130.52 31.744 130.282 30.8106 129.798 30.0322C129.235 29.0901 128.429 28.6204 127.384 28.6204C126.303 28.6204 125.482 29.0914 124.918 30.0322C124.435 30.8118 124.197 31.76 124.197 32.8816C124.197 33.9699 124.435 34.9033 124.918 35.6806C125.5 36.6226 126.312 37.0923 127.36 37.0923C128.387 37.0923 129.193 36.6127 129.774 35.656C130.27 34.8627 130.52 33.9195 130.52 32.8324Z" fill="white"/>
<path d="M142.051 29.2493C141.785 29.2013 141.501 29.1767 141.203 29.1767C140.257 29.1767 139.526 29.5248 139.011 30.222C138.563 30.8369 138.339 31.6142 138.339 32.5525V38.7445H135.651L135.676 30.6598C135.676 29.2997 135.642 28.0613 135.575 26.9447H137.917L138.016 29.2026H138.09C138.374 28.4266 138.822 27.8018 139.435 27.3333C140.034 26.9115 140.681 26.7012 141.379 26.7012C141.627 26.7012 141.852 26.7184 142.051 26.7491V29.2493Z" fill="white"/>
<path d="M154.077 32.2863C154.077 32.7561 154.046 33.152 153.979 33.4755H145.912C145.943 34.6413 146.333 35.5329 147.082 36.1478C147.762 36.6975 148.641 36.973 149.721 36.973C150.915 36.973 152.005 36.7873 152.985 36.4147L153.406 38.2347C152.261 38.7217 150.909 38.964 149.349 38.964C147.472 38.964 145.999 38.4254 144.927 37.3493C143.857 36.2732 143.321 34.8282 143.321 33.0155C143.321 31.236 143.819 29.7541 144.817 28.5723C145.861 27.3106 147.273 26.6797 149.049 26.6797C150.793 26.6797 152.114 27.3106 153.01 28.5723C153.72 29.5746 154.077 30.8142 154.077 32.2863ZM151.513 31.6062C151.531 30.829 151.356 30.1575 150.991 29.5906C150.526 28.8613 149.81 28.4973 148.848 28.4973C147.969 28.4973 147.254 28.8527 146.708 29.566C146.26 30.1329 145.994 30.813 145.912 31.605H151.513V31.6062Z" fill="white"/>
</svg>
