<svg width="30" height="30" viewBox="0 0 30 30" fill="none" xmlns="http://www.w3.org/2000/svg">
<rect width="30" height="30" rx="15" fill="#F4F4F4"/>
<path d="M11.1723 11.7032C11.5607 11.3105 11.5571 10.6773 11.1645 10.289C10.7718 9.90063 10.1386 9.90415 9.75027 10.2968L11.1723 11.7032ZM7 14.5L6.28897 13.7968C5.90368 14.1864 5.90368 14.8136 6.28897 15.2032L7 14.5ZM9.75027 18.7032C10.1386 19.0959 10.7718 19.0994 11.1645 18.711C11.5571 18.3227 11.5607 17.6895 11.1723 17.2968L9.75027 18.7032ZM23 15.5C23.5523 15.5 24 15.0523 24 14.5C24 13.9477 23.5523 13.5 23 13.5V15.5ZM9.75027 10.2968L6.28897 13.7968L7.71103 15.2032L11.1723 11.7032L9.75027 10.2968ZM6.28897 15.2032L9.75027 18.7032L11.1723 17.2968L7.71103 13.7968L6.28897 15.2032ZM7 15.5H23V13.5H7V15.5Z" fill="#333333"/>
</svg>
