<svg width="11" height="11" viewBox="0 0 11 11" fill="none" xmlns="http://www.w3.org/2000/svg">
<path d="M4.27778 0H0.611111C0.449034 0 0.293596 0.0643847 0.17899 0.17899C0.0643847 0.293596 0 0.449034 0 0.611111V4.27778C0 4.43985 0.0643847 4.59529 0.17899 4.7099C0.293596 4.8245 0.449034 4.88889 0.611111 4.88889H4.27778C4.43985 4.88889 4.59529 4.8245 4.7099 4.7099C4.8245 4.59529 4.88889 4.43985 4.88889 4.27778V0.611111C4.88889 0.449034 4.8245 0.293596 4.7099 0.17899C4.59529 0.0643847 4.43985 0 4.27778 0ZM10.3889 6.11111H6.72222C6.56015 6.11111 6.40471 6.1755 6.2901 6.2901C6.1755 6.40471 6.11111 6.56015 6.11111 6.72222V10.3889C6.11111 10.551 6.1755 10.7064 6.2901 10.821C6.40471 10.9356 6.56015 11 6.72222 11H10.3889C10.551 11 10.7064 10.9356 10.821 10.821C10.9356 10.7064 11 10.551 11 10.3889V6.72222C11 6.56015 10.9356 6.40471 10.821 6.2901C10.7064 6.1755 10.551 6.11111 10.3889 6.11111ZM8.55556 0C7.20744 0 6.11111 1.09633 6.11111 2.44444C6.11111 3.79256 7.20744 4.88889 8.55556 4.88889C9.90367 4.88889 11 3.79256 11 2.44444C11 1.09633 9.90367 0 8.55556 0ZM2.44444 6.11111C1.09633 6.11111 0 7.20744 0 8.55556C0 9.90367 1.09633 11 2.44444 11C3.79256 11 4.88889 9.90367 4.88889 8.55556C4.88889 7.20744 3.79256 6.11111 2.44444 6.11111Z" fill="#878787"/>
</svg>
