<svg width="22" height="19" viewBox="0 0 22 19" fill="none" xmlns="http://www.w3.org/2000/svg">
<path fill-rule="evenodd" clip-rule="evenodd" d="M5.66675 4.66667C5.66675 3.19391 6.86066 2 8.33342 2C9.80618 2 11.0001 3.19391 11.0001 4.66667C11.0001 6.13943 9.80618 7.33333 8.33342 7.33333C6.86066 7.33333 5.66675 6.13943 5.66675 4.66667ZM8.33342 0C5.75609 0 3.66675 2.08934 3.66675 4.66667C3.66675 7.244 5.75609 9.33333 8.33342 9.33333C10.9107 9.33333 13.0001 7.244 13.0001 4.66667C13.0001 2.08934 10.9107 0 8.33342 0ZM4.66667 11C3.42899 11 2.242 11.4917 1.36683 12.3668C0.491665 13.242 0 14.429 0 15.6667V17.5C0 18.0523 0.447715 18.5 1 18.5C1.55228 18.5 2 18.0523 2 17.5V15.6667C2 14.9594 2.28095 14.2811 2.78105 13.781C3.28115 13.281 3.95942 13 4.66667 13H12C12.7072 13 13.3855 13.281 13.8856 13.781C14.3857 14.2811 14.6667 14.9594 14.6667 15.6667V17.5C14.6667 18.0523 15.1144 18.5 15.6667 18.5C16.2189 18.5 16.6667 18.0523 16.6667 17.5V15.6667C16.6667 14.429 16.175 13.242 15.2998 12.3668C14.4247 11.4917 13.2377 11 12 11H4.66667Z" fill="#A9A9A9"/>
<path fill-rule="evenodd" clip-rule="evenodd" d="M16.1592 6.35089C16.1592 5.81179 16.5962 5.37476 17.1353 5.37476C17.6744 5.37476 18.1115 5.81179 18.1115 6.35089C18.1115 6.88999 17.6744 7.32703 17.1353 7.32703C16.5962 7.32703 16.1592 6.88999 16.1592 6.35089ZM17.1353 3.59766C15.6147 3.59766 14.3821 4.83032 14.3821 6.35089C14.3821 7.87146 15.6147 9.10413 17.1353 9.10413C18.6559 9.10413 19.8886 7.87146 19.8886 6.35089C19.8886 4.83032 18.6559 3.59766 17.1353 3.59766ZM16.5 10.1003C16.003 10.1003 15.6 10.5032 15.6 11.0003C15.6 11.4973 16.003 11.9003 16.5 11.9003H18.5676C18.802 11.9003 19.0268 11.9934 19.1925 12.1591C19.3583 12.3249 19.4514 12.5497 19.4514 12.7841V15.0003C19.4514 15.4973 19.8543 15.9003 20.3514 15.9003C20.8484 15.9003 21.2514 15.4973 21.2514 15.0003V12.7841C21.2514 12.0723 20.9686 11.3896 20.4653 10.8863C19.962 10.383 19.2794 10.1003 18.5676 10.1003H16.5Z" fill="#A9A9A9"/>
</svg>
