<svg width="24" height="19" viewBox="0 0 24 19" fill="none" xmlns="http://www.w3.org/2000/svg">
<path fill-rule="evenodd" clip-rule="evenodd" d="M7.68658 7.26372C7.68674 6.46528 7.8933 5.68045 8.28621 4.98537C8.67912 4.2903 9.24503 3.70859 9.92903 3.2967C10.613 2.88482 11.3919 2.65673 12.19 2.63459C12.9881 2.61245 13.7784 2.79701 14.4842 3.17034C15.19 3.54367 15.7873 4.09311 16.2181 4.76534C16.649 5.43756 16.8987 6.20974 16.9432 7.00694C16.9876 7.80415 16.8252 8.5993 16.4717 9.31523C16.1182 10.0312 15.5857 10.6436 14.9258 11.093C16.3469 11.6143 17.5796 12.5489 18.4651 13.7766C19.3506 15.0043 19.8484 16.4689 19.8945 17.9819C19.897 18.0648 19.8831 18.1475 19.8537 18.225C19.8242 18.3026 19.7798 18.3736 19.7229 18.4341C19.608 18.5561 19.4494 18.6274 19.2818 18.6325C19.1143 18.6375 18.9517 18.5758 18.8297 18.4609C18.7077 18.346 18.6363 18.1873 18.6313 18.0198C18.5811 16.3788 17.894 14.8218 16.7155 13.6788C15.537 12.5358 13.9598 11.8965 12.318 11.8965C10.6763 11.8965 9.09904 12.5358 7.92055 13.6788C6.74206 14.8218 6.05494 16.3788 6.00479 18.0198C5.99635 18.1847 5.92367 18.3398 5.8023 18.4517C5.68093 18.5637 5.52053 18.6237 5.35546 18.6189C5.19039 18.614 5.03379 18.5447 4.91919 18.4258C4.8046 18.3069 4.74113 18.1479 4.74239 17.9827C4.78833 16.4696 5.28609 15.0048 6.17161 13.7769C7.05712 12.5491 8.28985 11.6143 9.71113 11.093C9.08684 10.6684 8.57596 10.0974 8.22307 9.42992C7.87017 8.76244 7.68598 8.01875 7.68658 7.26372ZM12.3185 3.89509C11.425 3.89509 10.5682 4.24999 9.93647 4.88174C9.30473 5.51348 8.94982 6.37031 8.94982 7.26372C8.94982 8.15714 9.30473 9.01397 9.93647 9.64571C10.5682 10.2775 11.425 10.6324 12.3185 10.6324C13.2119 10.6324 14.0687 10.2775 14.7004 9.64571C15.3322 9.01397 15.6871 8.15714 15.6871 7.26372C15.6871 6.37031 15.3322 5.51348 14.7004 4.88174C14.0687 4.24999 13.2119 3.89509 12.3185 3.89509Z" fill="#A9A9A9" stroke-width="0.7"/>
<path d="M18.0033 2.26376C17.8786 2.26376 17.7574 2.27219 17.6378 2.28903C17.5543 2.30398 17.4686 2.30196 17.3859 2.28309C17.3032 2.26422 17.2252 2.22889 17.1565 2.1792C17.0877 2.12951 17.0297 2.06649 16.9858 1.99389C16.942 1.92128 16.9132 1.84059 16.9012 1.75662C16.8892 1.67265 16.8942 1.58713 16.916 1.50515C16.9378 1.42317 16.9758 1.34642 17.0279 1.27947C17.08 1.21252 17.145 1.15675 17.2191 1.11548C17.2932 1.07421 17.3749 1.04829 17.4592 1.03926C18.2968 0.918165 19.1509 1.07901 19.8871 1.49649C20.6232 1.91397 21.1997 2.56439 21.5257 3.34537C21.8517 4.12636 21.9088 4.99358 21.6879 5.81055C21.4671 6.62752 20.9808 7.34787 20.3057 7.85823C21.2981 8.30259 22.1407 9.02462 22.7319 9.93721C23.3231 10.8498 23.6375 11.914 23.6373 13.0013C23.6373 13.1688 23.5708 13.3295 23.4523 13.4479C23.3339 13.5664 23.1732 13.6329 23.0057 13.6329C22.8382 13.6329 22.6775 13.5664 22.5591 13.4479C22.4406 13.3295 22.3741 13.1688 22.3741 13.0013C22.374 12.0616 22.0712 11.1469 21.5106 10.3927C20.9499 9.63851 20.1613 9.08498 19.2615 8.81408L18.8118 8.67933V7.26787L19.157 7.09186C19.6689 6.8326 20.0784 6.40841 20.3195 5.88778C20.5606 5.36715 20.6192 4.78046 20.4858 4.22242C20.3525 3.66439 20.0349 3.16758 19.5845 2.8122C19.1341 2.45682 18.577 2.26361 18.0033 2.26376Z" fill="#A9A9A9" stroke-width="0.7"/>
<path d="M6.63393 2.26376C6.75857 2.26376 6.87984 2.27219 6.99942 2.28903C7.08292 2.30398 7.16857 2.30196 7.25126 2.28309C7.33396 2.26422 7.41201 2.22889 7.48075 2.1792C7.54949 2.12951 7.60753 2.06649 7.65138 1.99389C7.69524 1.92128 7.72403 1.84059 7.73602 1.75662C7.74802 1.67265 7.74298 1.58713 7.7212 1.50515C7.69943 1.42317 7.66136 1.34642 7.60928 1.27947C7.5572 1.21252 7.49217 1.15675 7.41806 1.11548C7.34396 1.07421 7.2623 1.04829 7.17796 1.03926C6.34037 0.918165 5.48629 1.07901 4.75013 1.49649C4.01397 1.91397 3.43752 2.56439 3.11151 3.34537C2.7855 4.12636 2.72842 4.99358 2.94928 5.81055C3.17013 6.62752 3.65636 7.34787 4.33146 7.85823C3.33907 8.30259 2.49647 9.02462 1.90531 9.93721C1.31415 10.8498 0.999695 11.914 0.999883 13.0013C0.999883 13.1688 1.06643 13.3295 1.18488 13.4479C1.30333 13.5664 1.46399 13.6329 1.6315 13.6329C1.79902 13.6329 1.95967 13.5664 2.07812 13.4479C2.19658 13.3295 2.26312 13.1688 2.26312 13.0013C2.26322 12.0616 2.56601 11.1469 3.12664 10.3927C3.68727 9.63851 4.47591 9.08498 5.37574 8.81408L5.82545 8.67933V7.26787L5.48017 7.09186C4.96834 6.8326 4.55883 6.40841 4.31773 5.88778C4.07664 5.36715 4.01803 4.78046 4.15139 4.22242C4.28474 3.66439 4.60226 3.16758 5.05269 2.8122C5.50313 2.45682 6.06018 2.26361 6.63393 2.26376Z" fill="#A9A9A9" stroke-width="0.7"/>
</svg>
