<svg width="30" height="23" viewBox="0 0 41 20" fill="none" xmlns="http://www.w3.org/2000/svg">
  <path class="custom-stroke"  d="M7.26921 7.4997C7.26921 5.16311 9.16339 3.26893 11.5 3.26893C12.201 3.26893 12.7692 2.70068 12.7692 1.9997C12.7692 1.29872 12.201 0.730469 11.5 0.730469C7.76144 0.730469 4.73075 3.76116 4.73075 7.4997C4.73075 9.59877 5.68616 11.4747 7.18585 12.7163C3.37738 14.4516 0.72998 18.2915 0.72998 22.7497C0.72998 23.4511 1.29858 24.0197 1.99998 24.0197C2.70138 24.0197 3.26998 23.4511 3.26998 22.7497C3.26998 18.0663 7.06661 14.2697 11.75 14.2697C12.4514 14.2697 13.02 13.7011 13.02 12.9997C13.02 12.2983 12.4514 11.7297 11.75 11.7297C11.6834 11.7297 11.617 11.7303 11.5507 11.7315C11.5339 11.7308 11.517 11.7305 11.5 11.7305C9.16339 11.7305 7.26921 9.83629 7.26921 7.4997ZM23.6994 4.53045C22.6567 3.9789 21.4892 3.70625 20.31 3.73896C19.1309 3.77167 17.9803 4.10863 16.9697 4.71713C15.9592 5.32564 15.1232 6.18503 14.5427 7.21191C13.9623 8.2387 13.6571 9.39808 13.6568 10.5776C13.656 11.6931 13.9281 12.7919 14.4495 13.7781C14.8316 14.5008 15.3391 15.147 15.946 15.6876C14.2483 16.4707 12.7761 17.6803 11.6767 19.2047C10.4057 20.9671 9.69107 23.0696 9.62513 25.2415L9.62504 25.2529C9.62232 25.6098 9.75948 25.9535 10.0071 26.2104C10.2548 26.4674 10.5932 26.6172 10.9499 26.6276C11.3066 26.6381 11.6532 26.5085 11.9155 26.2665C12.1778 26.0245 12.335 25.6894 12.3532 25.333L12.3535 25.3227C12.4182 23.2054 13.3048 21.1965 14.8254 19.7218C16.3459 18.247 18.3809 17.4222 20.4992 17.4222C22.6175 17.4222 24.6525 18.247 26.1731 19.7218C27.6936 21.1965 28.5802 23.2054 28.6449 25.3227C28.6558 25.6846 28.81 26.0273 29.0735 26.2754C29.3372 26.5237 29.6886 26.6571 30.0505 26.6462C30.4125 26.6354 30.7553 26.4812 31.0035 26.2175C31.1265 26.087 31.2225 25.9336 31.2861 25.7659C31.3497 25.5983 31.3797 25.4195 31.3743 25.2403C31.3081 23.0686 30.5936 20.9664 29.3226 19.2042C28.2231 17.6799 26.7509 16.4704 25.0531 15.6874C25.7072 15.1044 26.2453 14.3993 26.6356 13.6087C27.1578 12.551 27.3978 11.3762 27.3321 10.1985C27.2665 9.02074 26.8975 7.87995 26.261 6.88684C25.6245 5.89372 24.7421 5.082 23.6994 4.53045ZM17.5914 7.66959C18.3628 6.89824 19.4089 6.4649 20.4998 6.4649C21.5906 6.4649 22.6368 6.89824 23.4082 7.66959C24.1795 8.44093 24.6128 9.48711 24.6128 10.578C24.6128 11.6688 24.1795 12.715 23.4082 13.4863C22.6368 14.2577 21.5906 14.691 20.4998 14.691C19.4089 14.691 18.3628 14.2577 17.5914 13.4863C16.8201 12.715 16.3867 11.6688 16.3867 10.578C16.3867 9.48711 16.8201 8.44093 17.5914 7.66959ZM30.25 3.26893C32.5866 3.26893 34.4808 5.16311 34.4808 7.4997C34.4808 9.83629 32.5866 11.7305 30.25 11.7305C30.233 11.7305 30.2161 11.7308 30.1992 11.7315C30.133 11.7303 30.0665 11.7297 30 11.7297C29.2986 11.7297 28.73 12.2983 28.73 12.9997C28.73 13.7011 29.2986 14.2697 30 14.2697C34.6834 14.2697 38.48 18.0663 38.48 22.7497C38.48 23.4511 39.0486 24.0197 39.75 24.0197C40.4514 24.0197 41.02 23.4511 41.02 22.7497C41.02 18.2915 38.3726 14.4516 34.5641 12.7163C36.0638 11.4747 37.0192 9.59877 37.0192 7.4997C37.0192 3.76116 33.9885 0.730469 30.25 0.730469C29.549 0.730469 28.9808 1.29872 28.9808 1.9997C28.9808 2.70068 29.549 3.26893 30.25 3.26893Z" />
</svg>
