<svg width="20" height="22" viewBox="0 0 20 22" fill="none" xmlns="http://www.w3.org/2000/svg">
<path fill-rule="evenodd" clip-rule="evenodd" d="M5.5 17C5.89782 17 6.27936 17.158 6.56066 17.4393C6.84196 17.7206 7 18.1022 7 18.5C7 18.8978 6.84196 19.2794 6.56066 19.5607C6.27936 19.842 5.89782 20 5.5 20C5.10218 20 4.72064 19.842 4.43934 19.5607C4.15804 19.2794 4 18.8978 4 18.5C4 18.1022 4.15804 17.7206 4.43934 17.4393C4.72064 17.158 5.10218 17 5.5 17ZM15.5 17C15.8978 17 16.2794 17.158 16.5607 17.4393C16.842 17.7206 17 18.1022 17 18.5C17 18.8978 16.842 19.2794 16.5607 19.5607C16.2794 19.842 15.8978 20 15.5 20C15.1022 20 14.7206 19.842 14.4393 19.5607C14.158 19.2794 14 18.8978 14 18.5C14 18.1022 14.158 17.7206 14.4393 17.4393C14.7206 17.158 15.1022 17 15.5 17ZM1.138 0C1.89654 9.04185e-05 2.62689 0.287525 3.18203 0.804444C3.73717 1.32136 4.07589 2.02939 4.13 2.786L4.145 3H17.802C18.095 2.99996 18.3844 3.06429 18.6498 3.18844C18.9152 3.31259 19.15 3.49354 19.3378 3.71848C19.5255 3.94342 19.6615 4.20686 19.7362 4.49017C19.8109 4.77348 19.8224 5.06974 19.77 5.358L18.133 14.358C18.0492 14.8188 17.8062 15.2356 17.4466 15.5357C17.0869 15.8357 16.6334 16.0001 16.165 16H4.931C4.42514 16 3.93807 15.8083 3.56789 15.4636C3.1977 15.1188 2.97192 14.6466 2.936 14.142L2.136 2.929C2.11802 2.67645 2.00492 2.44012 1.81951 2.2677C1.6341 2.09528 1.39019 1.99961 1.137 2H1C0.734784 2 0.48043 1.89464 0.292893 1.70711C0.105357 1.51957 0 1.26522 0 1C0 0.734784 0.105357 0.48043 0.292893 0.292893C0.48043 0.105357 0.734784 0 1 0H1.138ZM17.802 5H4.288L4.931 14H16.165L17.802 5Z" fill="black"/>
</svg>
