<svg width="30" height="27" viewBox="0 0 30 27" fill="none" xmlns="http://www.w3.org/2000/svg">
<path d="M20.2 25.3004V22.7004C20.2 21.3213 19.6521 19.9986 18.677 19.0234C17.7018 18.0482 16.3791 17.5004 15 17.5004H7.2C5.82087 17.5004 4.49823 18.0482 3.52304 19.0234C2.54786 19.9986 2 21.3213 2 22.7004V25.3004M28 25.3004V22.7004C27.9991 21.5482 27.6157 20.429 26.9098 19.5184C26.2039 18.6078 25.2156 17.9574 24.1 17.6694M20.2 2.06939C21.3185 2.35578 22.3099 3.0063 23.0179 3.91839C23.7259 4.83049 24.1102 5.95227 24.1102 7.10689C24.1102 8.26151 23.7259 9.38329 23.0179 10.2954C22.3099 11.2075 21.3185 11.858 20.2 12.1444M16.3 7.10039C16.3 9.97227 13.9719 12.3004 11.1 12.3004C8.22812 12.3004 5.9 9.97227 5.9 7.10039C5.9 4.22851 8.22812 1.90039 11.1 1.90039C13.9719 1.90039 16.3 4.22851 16.3 7.10039Z" stroke="#B1B2B2" stroke-width="2.6" stroke-linecap="round" stroke-linejoin="round"/>
</svg>
