<svg width="20" height="20" viewBox="0 0 25 25" fill="none" xmlns="http://www.w3.org/2000/svg">
<path d="M18.75 18.75C22.2018 15.2982 22.2018 9.70178 18.75 6.25C15.2982 2.79822 9.70178 2.79822 6.25 6.25C2.79822 9.70178 2.79822 15.2982 6.25 18.75C9.70178 22.2018 15.2982 22.2018 18.75 18.75Z" fill="#FC6815"/>
<path d="M12.4998 23.0713C6.6703 23.0713 1.92773 18.3287 1.92773 12.4992C1.92773 6.66978 6.6703 1.92773 12.4998 1.92773C18.3292 1.92773 23.0713 6.6703 23.0713 12.4992C23.0713 18.3282 18.3287 23.0713 12.4998 23.0713ZM12.4998 3.66093C7.62571 3.66093 3.66093 7.62571 3.66093 12.4992C3.66093 17.3728 7.62571 21.3381 12.4998 21.3381C17.3738 21.3381 21.3381 17.3733 21.3381 12.4992C21.3381 7.62518 17.3733 3.66093 12.4998 3.66093Z" fill="#FDC02D"/>
<path d="M2.57245 12.4992C2.57245 6.77793 7.14112 2.10429 12.8221 1.93304C12.7161 1.92986 12.61 1.92773 12.4998 1.92773C6.6703 1.92773 1.92773 6.6703 1.92773 12.4992C1.92773 18.3282 6.6703 23.0713 12.4998 23.0713C12.6058 23.0713 12.715 23.0713 12.8221 23.066C7.14112 22.8947 2.57245 18.2211 2.57245 12.4992Z" fill="#F7DE61"/>
<path d="M12.4994 3.66113C12.4045 3.66113 12.3106 3.66113 12.2168 3.6659C16.9604 3.81542 20.7736 7.72028 20.7736 12.4994C20.7736 17.2786 16.9604 21.184 12.2168 21.333C12.3106 21.3362 12.4045 21.3377 12.4994 21.3377C17.3729 21.3377 21.3377 17.373 21.3377 12.4989C21.3377 7.62485 17.3729 3.66113 12.4994 3.66113Z" fill="#EBBA41"/>
<path d="M9.05018 16.9434V7.5561H13.1513C14.1366 7.5561 14.9 7.77359 15.4415 8.20855C15.983 8.63464 16.2537 9.22939 16.2537 9.9928C16.2537 10.4988 16.125 10.9337 15.8676 11.2977C15.6102 11.6616 15.2551 11.9279 14.8024 12.0966C15.335 12.2475 15.7478 12.5138 16.0407 12.8955C16.3425 13.2683 16.4934 13.7433 16.4934 14.3203C16.4934 15.1547 16.2093 15.8027 15.6412 16.2643C15.082 16.717 14.3008 16.9434 13.2977 16.9434H9.05018ZM10.688 11.5374H12.8583C14.0212 11.5374 14.6026 11.0891 14.6026 10.1925C14.6026 9.29596 14.0212 8.84768 12.8583 8.84768H10.688V11.5374ZM10.688 15.6518H13.0847C14.2564 15.6518 14.8423 15.1813 14.8423 14.2404C14.8423 13.2994 14.2564 12.8289 13.0847 12.8289H10.688V15.6518Z" fill="#FEFD88"/>
<path opacity="0.8" d="M8.82508 16.7998V7.41255H12.9262C13.9115 7.41255 14.6749 7.63003 15.2164 8.065C15.7579 8.49109 16.0286 9.08583 16.0286 9.84924C16.0286 10.3552 15.8999 10.7902 15.6425 11.1541C15.3851 11.5181 15.03 11.7844 14.5773 11.9531C15.1099 12.104 15.5227 12.3703 15.8156 12.752C16.1174 13.1248 16.2683 13.5997 16.2683 14.1767C16.2683 15.0111 15.9842 15.6591 15.4161 16.1207C14.8569 16.5734 14.0757 16.7998 13.0726 16.7998H8.82508ZM10.4629 11.3938H12.6332C13.7961 11.3938 14.3775 10.9455 14.3775 10.049C14.3775 9.15241 13.7961 8.70413 12.6332 8.70413H10.4629V11.3938ZM10.4629 15.5082H12.8596C14.0313 15.5082 14.6172 15.0378 14.6172 14.0968C14.6172 13.1559 14.0313 12.6854 12.8596 12.6854H10.4629V15.5082Z" fill="#FDC02D"/>
</svg>
