<svg width="15" height="15" viewBox="0 0 19 19" fill="none" xmlns="http://www.w3.org/2000/svg">
<path d="M5.99514 16.2951C6.0901 16.2792 6.18763 16.2928 6.27466 16.334C7.27433 16.8068 8.36943 17.0553 9.50072 17.0553C13.6735 17.0553 17.0561 13.6726 17.0561 9.49984C17.0561 5.3271 13.6735 1.94443 9.50072 1.94443C5.32798 1.94443 1.9453 5.3271 1.9453 9.49984C1.9453 11.1119 2.45084 12.6465 3.37568 13.9244C3.47538 14.0622 3.49331 14.2429 3.42263 14.3976L2.27189 16.9156L5.99514 16.2951ZM1.55072 17.9933C1.17747 18.0555 0.886317 17.6754 1.0436 17.3312L2.45145 14.2505C1.51222 12.8597 1.00087 11.2177 1.00087 9.49984C1.00087 4.80551 4.80638 1 9.50072 1C14.1951 1 18.0006 4.80551 18.0006 9.49984C18.0006 14.1942 14.1951 17.9997 9.50072 17.9997C8.28007 17.9997 7.09513 17.7419 6.00684 17.2506L1.55072 17.9933Z" fill="black" stroke="black" stroke-width="0.8"/>
</svg>
