<svg width="24" height="24" viewBox="0 0 24 24" fill="none" xmlns="http://www.w3.org/2000/svg">
<path d="M20.7222 2.77778C20.9984 2.77778 21.2222 3.00164 21.2222 3.27778V5.05556C21.2222 5.3317 20.9984 5.55556 20.7222 5.55556H16.1667C15.8905 5.55556 15.6667 5.3317 15.6667 5.05556V3.27778C15.6667 3.00164 15.8905 2.77778 16.1667 2.77778H20.7222ZM7.33333 2.77778C7.88562 2.77778 8.33333 3.22549 8.33333 3.77778V10.1111C8.33333 10.6634 7.88562 11.1111 7.33333 11.1111H3.77778C3.22549 11.1111 2.77778 10.6634 2.77778 10.1111V3.77778C2.77778 3.22549 3.22549 2.77778 3.77778 2.77778H7.33333ZM20.2222 12.8889C20.7745 12.8889 21.2222 13.3366 21.2222 13.8889V20.2222C21.2222 20.7745 20.7745 21.2222 20.2222 21.2222H16.6667C16.1144 21.2222 15.6667 20.7745 15.6667 20.2222V13.8889C15.6667 13.3366 16.1144 12.8889 16.6667 12.8889H20.2222ZM7.83333 18.4444C8.10948 18.4444 8.33333 18.6683 8.33333 18.9444V20.7222C8.33333 20.9984 8.10948 21.2222 7.83333 21.2222H3.27778C3.00164 21.2222 2.77778 20.9984 2.77778 20.7222V18.9444C2.77778 18.6683 3.00164 18.4444 3.27778 18.4444H7.83333ZM24 3C24 1.34315 22.6569 0 21 0H15.8889C14.232 0 12.8889 1.34315 12.8889 3V5.33333C12.8889 6.99019 14.232 8.33333 15.8889 8.33333H21C22.6569 8.33333 24 6.99019 24 5.33333V3ZM11.1111 3C11.1111 1.34315 9.76797 0 8.11111 0H5.55556H3C1.34314 0 0 1.34315 0 3V10.8889C0 12.5457 1.34315 13.8889 3 13.8889H8.11111C9.76797 13.8889 11.1111 12.5457 11.1111 10.8889V3ZM24 13.1111C24 11.4543 22.6569 10.1111 21 10.1111H15.8889C14.232 10.1111 12.8889 11.4543 12.8889 13.1111V21C12.8889 22.6569 14.232 24 15.8889 24H21C22.6569 24 24 22.6569 24 21V13.1111ZM11.1111 18.6667C11.1111 17.0098 9.76796 15.6667 8.11111 15.6667H3C1.34314 15.6667 0 17.0098 0 18.6667V21C0 22.6569 1.34315 24 3 24H8.11111C9.76797 24 11.1111 22.6569 11.1111 21V18.6667Z" fill="#BDBEC0"/>
</svg>
