<svg width="9" height="8" viewBox="0 0 9 8" fill="none" xmlns="http://www.w3.org/2000/svg">
<path fill-rule="evenodd" clip-rule="evenodd" d="M9 3.50002C9 3.63262 8.94732 3.7598 8.85355 3.85357C8.75979 3.94734 8.63261 4.00001 8.5 4.00001H2.50002C2.1022 4.00001 1.72067 4.15805 1.43937 4.43935C1.15806 4.72066 1.00003 5.10219 1.00003 5.50001V7.5C1.00003 7.63261 0.94735 7.75979 0.853581 7.85355C0.759813 7.94732 0.632637 8 0.500029 8C0.367421 8 0.240244 7.94732 0.146477 7.85355C0.0527086 7.75979 3.05176e-05 7.63261 3.05176e-05 7.5V5.50001C3.05176e-05 4.83697 0.263422 4.20109 0.732261 3.73225C1.2011 3.26341 1.83698 3.00002 2.50002 3.00002H8.5C8.63261 3.00002 8.75979 3.05269 8.85355 3.14646C8.94732 3.24023 9 3.36741 9 3.50002Z" fill="white"/>
<path fill-rule="evenodd" clip-rule="evenodd" d="M8.85349 3.14679C8.94722 3.24056 8.99988 3.36771 8.99988 3.50029C8.99988 3.63287 8.94722 3.76003 8.85349 3.85379L6.85349 5.85379C6.75919 5.94486 6.63289 5.99526 6.50179 5.99412C6.37069 5.99298 6.24529 5.9404 6.15259 5.84769C6.05988 5.75499 6.0073 5.62958 6.00616 5.49849C6.00502 5.36739 6.05542 5.24109 6.14649 5.14679L7.79299 3.50029L6.14649 1.8538C6.09874 1.80768 6.06065 1.7525 6.03444 1.6915C6.00824 1.6305 5.99445 1.56489 5.99387 1.4985C5.99329 1.43211 6.00594 1.36627 6.03108 1.30482C6.05622 1.24338 6.09335 1.18755 6.1403 1.1406C6.18724 1.09366 6.24307 1.05653 6.30452 1.03139C6.36596 1.00625 6.4318 0.993599 6.49819 0.994176C6.56458 0.994753 6.63019 1.00855 6.69119 1.03475C6.7522 1.06096 6.80737 1.09905 6.85349 1.1468L8.85349 3.14679Z" fill="white"/>
</svg>
