<svg width="18" height="14" viewBox="0 0 18 14" fill="none" xmlns="http://www.w3.org/2000/svg">
<path d="M11.2962 10.2942C11.2034 10.3871 11.1297 10.4974 11.0795 10.6188C11.0293 10.7401 11.0035 10.8702 11.0035 11.0016C11.0035 11.1329 11.0295 11.263 11.0798 11.3843C11.1301 11.5056 11.2038 11.6159 11.2967 11.7087C11.3896 11.8015 11.4999 11.8752 11.6213 11.9254C11.7426 11.9756 11.8727 12.0015 12.0041 12.0014C12.1354 12.0014 12.2655 11.9754 12.3868 11.9251C12.5081 11.8748 12.6184 11.8011 12.7112 11.7082L17.7082 6.7042C17.8954 6.51672 18.0005 6.26262 18.0005 5.9977C18.0005 5.73278 17.8954 5.47869 17.7082 5.2912L12.7102 0.293203C12.5227 0.105562 12.2683 9.3828e-05 12.0031 6.25739e-08C11.7378 -9.37028e-05 11.4833 0.105195 11.2957 0.292703C11.1081 0.480211 11.0026 0.734579 11.0025 0.999849C11.0024 1.26512 11.1077 1.51956 11.2952 1.7072L14.5902 5.0002H8.0002C5.92177 5.00023 3.92494 5.80914 2.4325 7.25567C0.940048 8.7022 0.0691508 10.6728 0.00419998 12.7502L0.000202179 13.0002C0.000202179 13.2654 0.105558 13.5198 0.293095 13.7073C0.480631 13.8948 0.734986 14.0002 1.0002 14.0002C1.26542 14.0002 1.51977 13.8948 1.70731 13.7073C1.89485 13.5198 2.0002 13.2654 2.0002 13.0002C2.00015 11.4478 2.60177 9.95584 3.67867 8.83773C4.75557 7.71962 6.22391 7.06242 7.7752 7.0042L8.0002 7.0002H14.5862L11.2962 10.2942Z" fill="black"/>
</svg>
