<svg width="21" height="21" viewBox="0 0 21 21" fill="none" xmlns="http://www.w3.org/2000/svg">
<circle cx="10.3695" cy="10.3695" r="10.3695" fill="#D9D9D9"/>
<circle cx="10.3081" cy="10.3081" r="8.30811" fill="#D9D9D9" stroke="white" stroke-width="0.639085"/>
<path d="M7.76127 14V7.02994H10.8063C11.538 7.02994 12.1048 7.19142 12.5068 7.51438C12.9089 7.83075 13.1099 8.27235 13.1099 8.83919C13.1099 9.21488 13.0144 9.53784 12.8232 9.80808C12.6321 10.0783 12.3684 10.276 12.0323 10.4013C12.4278 10.5133 12.7342 10.7111 12.9517 10.9945C13.1758 11.2713 13.2879 11.6239 13.2879 12.0523C13.2879 12.6719 13.077 13.153 12.6551 13.4958C12.2399 13.8319 11.6599 14 10.9151 14H7.76127ZM8.97732 9.98603H10.5888C11.4523 9.98603 11.884 9.65319 11.884 8.98749C11.884 8.32179 11.4523 7.98894 10.5888 7.98894H8.97732V9.98603ZM8.97732 13.041H10.7569C11.6269 13.041 12.0619 12.6917 12.0619 11.993C12.0619 11.2944 11.6269 10.945 10.7569 10.945H8.97732V13.041Z" fill="white"/>
</svg>
