<svg width="21" height="17" viewBox="0 0 21 17" fill="none" xmlns="http://www.w3.org/2000/svg">
<path d="M18.9 8.92815V3.15C18.9 2.87152 18.7894 2.60445 18.5925 2.40754C18.3955 2.21062 18.1285 2.1 17.85 2.1H3.15C2.87152 2.1 2.60445 2.21062 2.40754 2.40754C2.21062 2.60445 2.1 2.87152 2.1 3.15V13.65C2.1 13.9285 2.21062 14.1955 2.40754 14.3925C2.60445 14.5894 2.87152 14.7 3.15 14.7H6.8292L11.4387 7.0119C11.6847 6.6018 12.0209 6.2531 12.4217 5.99223C12.8225 5.73137 13.2774 5.56519 13.752 5.50629C14.2266 5.4474 14.7084 5.49734 15.1608 5.65232C15.6132 5.80731 16.0244 6.06327 16.3632 6.4008L18.9 8.92815ZM18.9 11.8923L14.8806 7.8876C14.7676 7.7752 14.6305 7.69001 14.4797 7.63847C14.3289 7.58693 14.1683 7.5704 14.0101 7.59013C13.852 7.60986 13.7004 7.66533 13.5669 7.75235C13.4333 7.83936 13.3214 7.95564 13.2394 8.09235L9.2778 14.7H17.85C18.1285 14.7 18.3955 14.5894 18.5925 14.3925C18.7894 14.1955 18.9 13.9285 18.9 13.65V11.8923ZM3.15 0H17.85C18.6854 0 19.4866 0.331874 20.0774 0.922614C20.6681 1.51335 21 2.31457 21 3.15V13.65C21 14.4854 20.6681 15.2866 20.0774 15.8774C19.4866 16.4681 18.6854 16.8 17.85 16.8H3.15C2.31457 16.8 1.51335 16.4681 0.922614 15.8774C0.331874 15.2866 0 14.4854 0 13.65L0 3.15C0 2.31457 0.331874 1.51335 0.922614 0.922614C1.51335 0.331874 2.31457 0 3.15 0V0ZM6.3 9.45C5.46457 9.45 4.66335 9.11813 4.07261 8.52739C3.48187 7.93665 3.15 7.13543 3.15 6.3C3.15 5.46457 3.48187 4.66335 4.07261 4.07261C4.66335 3.48187 5.46457 3.15 6.3 3.15C7.13543 3.15 7.93665 3.48187 8.52739 4.07261C9.11813 4.66335 9.45 5.46457 9.45 6.3C9.45 7.13543 9.11813 7.93665 8.52739 8.52739C7.93665 9.11813 7.13543 9.45 6.3 9.45ZM6.3 7.35C6.57848 7.35 6.84555 7.23938 7.04246 7.04246C7.23937 6.84555 7.35 6.57848 7.35 6.3C7.35 6.02152 7.23937 5.75445 7.04246 5.55754C6.84555 5.36063 6.57848 5.25 6.3 5.25C6.02152 5.25 5.75445 5.36063 5.55754 5.55754C5.36062 5.75445 5.25 6.02152 5.25 6.3C5.25 6.57848 5.36062 6.84555 5.55754 7.04246C5.75445 7.23938 6.02152 7.35 6.3 7.35Z" fill="#303133"/>
</svg>
