<svg width="33" height="33" viewBox="0 0 33 33" fill="none" xmlns="http://www.w3.org/2000/svg">
<path d="M13.3822 0.334233L15.3505 1.1096C16.0526 1.38601 16.8333 1.38601 17.5354 1.1096L19.5037 0.334233C20.6623 -0.121475 21.9526 -0.109852 23.1029 0.366655C24.2532 0.843162 25.1738 1.74738 25.6708 2.88896L26.5138 4.82738C26.8147 5.51916 27.3667 6.07115 28.0585 6.37214L29.9969 7.21511C31.139 7.71212 32.0436 8.633 32.5201 9.78375C32.9967 10.9345 33.008 12.2253 32.5517 13.3842L31.7763 15.3525C31.5004 16.054 31.5004 16.8339 31.7763 17.5354L32.5517 19.5037C33.0074 20.6623 32.9958 21.9526 32.5192 23.1029C32.0427 24.2532 31.1385 25.1738 29.9969 25.6708L28.0585 26.5138C27.3666 26.8146 26.8146 27.3666 26.5138 28.0585L25.6708 29.9969C25.1738 31.139 24.2529 32.0436 23.1021 32.5201C21.9514 32.9967 20.6606 33.008 19.5017 32.5517L17.5334 31.7763C16.8319 31.5004 16.052 31.5004 15.3505 31.7763L13.3822 32.5517C12.2236 33.0074 10.9333 32.9958 9.78296 32.5192C8.63267 32.0427 7.71212 31.1385 7.21511 29.9969L6.37214 28.0585C6.07115 27.3667 5.51916 26.8147 4.82738 26.5138L2.88896 25.6708C1.7469 25.1738 0.842322 24.2529 0.365777 23.1021C-0.110768 21.9514 -0.122077 20.6606 0.334233 19.5017L1.1096 17.5334C1.38549 16.8319 1.38549 16.052 1.1096 15.3505L0.334233 13.3822C-0.121475 12.2236 -0.109852 10.9333 0.366655 9.78296C0.843162 8.63267 1.74738 7.71212 2.88896 7.21511L4.82738 6.37214C5.51916 6.07115 6.07115 5.51916 6.37214 4.82738L7.21511 2.88896C7.71212 1.7469 8.633 0.842322 9.78375 0.365777C10.9345 -0.110768 12.2233 -0.122077 13.3822 0.334233ZM21.6647 11.8057L14.4121 19.9649L11.1814 16.7342C10.9939 16.5531 10.7428 16.4529 10.4822 16.4552C10.2215 16.4575 9.97221 16.562 9.78791 16.7463C9.6036 16.9306 9.49906 17.1799 9.49679 17.4406C9.49453 17.7012 9.59472 17.9523 9.7758 18.1398L13.752 22.116C13.8478 22.2118 13.962 22.287 14.0879 22.337C14.2137 22.387 14.3484 22.4108 14.4837 22.4069C14.6191 22.4029 14.7522 22.3714 14.8749 22.3142C14.9976 22.2571 15.1074 22.1754 15.1974 22.0743L23.1499 13.1278C23.3252 12.9308 23.4151 12.6723 23.3998 12.4091C23.3845 12.1458 23.2653 11.8995 23.0683 11.7242C22.8714 11.5488 22.6129 11.4589 22.3497 11.4742C22.0864 11.4895 21.8401 11.6087 21.6647 11.8057Z" fill="url(#paint0_linear_1892_4329)"/>
<defs>
<linearGradient id="paint0_linear_1892_4329" x1="4.7803" y1="5.12811" x2="28.7963" y2="28.4258" gradientUnits="userSpaceOnUse">
<stop stop-color="#F21C29"/>
<stop offset="0.12" stop-color="#F21C29"/>
<stop offset="0.21" stop-color="#F21C29"/>
<stop offset="0.45" stop-color="#F21C29"/>
<stop offset="0.67" stop-color="#F21C29"/>
<stop offset="1" stop-color="#F21C29"/>
</linearGradient>
</defs>
</svg>
