<svg width="172" height="50" viewBox="0 0 172 50" fill="none" xmlns="http://www.w3.org/2000/svg">
<path d="M165.041 49.4824H6.44329C2.95572 49.4824 0.0993652 46.6975 0.0993652 43.2971V6.18516C0.0993652 2.78479 2.95572 -0.000157356 6.44329 -0.000157356H165.041C168.529 -0.000157356 171.385 2.78479 171.385 6.18516V43.2971C171.385 46.6975 168.529 49.4824 165.041 49.4824Z" fill="black"/>
<path d="M165.041 0.991039C167.979 0.991039 170.369 3.32136 170.369 6.18516V43.2971C170.369 46.1609 167.979 48.4912 165.041 48.4912H6.44329C3.50605 48.4912 1.11598 46.1609 1.11598 43.2971V6.18516C1.11598 3.32136 3.50605 0.991039 6.44329 0.991039H165.041ZM165.041 -0.000157356H6.44329C2.95572 -0.000157356 0.0993652 2.78479 0.0993652 6.18516V43.2971C0.0993652 46.6975 2.95572 49.4824 6.44329 49.4824H165.041C168.529 49.4824 171.385 46.6975 171.385 43.2971V6.18516C171.385 2.78479 168.529 -0.000157356 165.041 -0.000157356Z" fill="#A6A6A6"/>
<path d="M13.3391 9.32566C12.9664 9.70605 12.7507 10.2983 12.7507 11.0653V38.423C12.7507 39.1899 12.9664 39.7822 13.3391 40.1626L13.4311 40.2461L29.1545 24.922V24.5601L13.4311 9.23597L13.3391 9.32566Z" fill="url(#paint0_linear_2676_3013)"/>
<path d="M34.3897 30.0332L29.1544 24.9226V24.5607L34.3961 19.4501L34.5134 19.5166L40.721 22.9603C42.4925 23.9376 42.4925 25.5458 40.721 26.5292L34.5134 29.9667L34.3897 30.0332Z" fill="url(#paint1_linear_2676_3013)"/>
<path d="M34.5135 29.9656L29.1545 24.7405L13.3391 40.1621C13.9275 40.7651 14.887 40.8378 15.9782 40.2347L34.5135 29.9656Z" fill="url(#paint2_linear_2676_3013)"/>
<path d="M34.5135 19.5152L15.9782 9.246C14.887 8.64912 13.9275 8.7218 13.3391 9.32487L29.1545 24.7402L34.5135 19.5152Z" fill="url(#paint3_linear_2676_3013)"/>
<path d="M60.2618 12.6739C60.2618 13.7068 59.9446 14.5341 59.3198 15.1511C58.6013 15.8825 57.6656 16.2505 56.5189 16.2505C55.423 16.2505 54.4873 15.8763 53.7197 15.1387C52.9505 14.3903 52.5667 13.4718 52.5667 12.3723C52.5667 11.2729 52.9505 10.3544 53.7197 9.61214C54.4873 8.86835 55.423 8.49414 56.5189 8.49414C57.0645 8.49414 57.5847 8.60393 58.0811 8.80805C58.5759 9.01371 58.9788 9.29205 59.2706 9.63533L58.6076 10.2879C58.0985 9.70183 57.4055 9.41266 56.5189 9.41266C55.7196 9.41266 55.0265 9.68482 54.4381 10.2338C53.8561 10.7843 53.5642 11.4971 53.5642 12.3723C53.5642 13.2476 53.8561 13.9666 54.4381 14.5171C55.0265 15.0599 55.7196 15.3382 56.5189 15.3382C57.3674 15.3382 58.0811 15.0599 58.6441 14.5109C59.0152 14.1475 59.2262 13.6465 59.2817 13.0063H56.5189V12.1126H60.2047C60.2491 12.3058 60.2618 12.493 60.2618 12.6739Z" fill="white" stroke="white" stroke-width="0.0507514" stroke-miterlimit="10"/>
<path d="M66.1093 9.5729H62.6471V11.9233H65.7683V12.8171H62.6471V15.1675H66.1093V16.0783H61.667V8.66211H66.1093V9.5729Z" fill="white" stroke="white" stroke-width="0.0507514" stroke-miterlimit="10"/>
<path d="M70.2361 16.0783H69.256V9.5729H67.1323V8.66211H72.3613V9.5729H70.2361V16.0783Z" fill="white" stroke="white" stroke-width="0.0507514" stroke-miterlimit="10"/>
<path d="M76.1455 16.0783V8.66211H77.1241V16.0783H76.1455Z" fill="white" stroke="white" stroke-width="0.0507514" stroke-miterlimit="10"/>
<path d="M81.4617 16.0783H80.4895V9.5729H78.3579V8.66211H83.5932V9.5729H81.4617V16.0783Z" fill="white" stroke="white" stroke-width="0.0507514" stroke-miterlimit="10"/>
<path d="M93.493 15.1264C92.7428 15.8763 91.8134 16.2505 90.7048 16.2505C89.5899 16.2505 88.6605 15.8763 87.9104 15.1264C87.1618 14.3779 86.7891 13.4594 86.7891 12.3723C86.7891 11.2853 87.1618 10.3667 87.9104 9.61832C88.6605 8.86835 89.5899 8.49414 90.7048 8.49414C91.8071 8.49414 92.7365 8.86835 93.4867 9.62451C94.2416 10.3791 94.6143 11.2915 94.6143 12.3723C94.6143 13.4594 94.2416 14.3779 93.493 15.1264ZM88.6351 14.5047C89.1998 15.0599 89.8865 15.3382 90.7048 15.3382C91.5169 15.3382 92.2099 15.0599 92.7682 14.5047C93.3312 13.9496 93.6167 13.2367 93.6167 12.3723C93.6167 11.5079 93.3312 10.7951 92.7682 10.2399C92.2099 9.68482 91.5169 9.40648 90.7048 9.40648C89.8865 9.40648 89.1998 9.68482 88.6351 10.2399C88.0721 10.7951 87.7866 11.5079 87.7866 12.3723C87.7866 13.2367 88.0721 13.9496 88.6351 14.5047Z" fill="white" stroke="white" stroke-width="0.0507514" stroke-miterlimit="10"/>
<path d="M95.9893 16.0783V8.66211H97.1787L100.877 14.4299H100.92L100.877 13.0042V8.66211H101.856V16.0783H100.834L96.9615 10.026H96.9186L96.9615 11.4579V16.0783H95.9893Z" fill="white" stroke="white" stroke-width="0.0507514" stroke-miterlimit="10"/>
<path d="M86.5479 26.9094C83.5678 26.9094 81.1333 29.1207 81.1333 32.1716C81.1333 35.1978 83.5678 37.4322 86.5479 37.4322C89.5343 37.4322 91.9687 35.1978 91.9687 32.1716C91.9687 29.1207 89.5343 26.9094 86.5479 26.9094ZM86.5479 35.3601C84.9127 35.3601 83.506 34.0442 83.506 32.1716C83.506 30.2743 84.9127 28.9815 86.5479 28.9815C88.183 28.9815 89.5961 30.2743 89.5961 32.1716C89.5961 34.0442 88.183 35.3601 86.5479 35.3601ZM74.7339 26.9094C71.7475 26.9094 69.3194 29.1207 69.3194 32.1716C69.3194 35.1978 71.7475 37.4322 74.7339 37.4322C77.7187 37.4322 80.1484 35.1978 80.1484 32.1716C80.1484 29.1207 77.7187 26.9094 74.7339 26.9094ZM74.7339 35.3601C73.0972 35.3601 71.6856 34.0442 71.6856 32.1716C71.6856 30.2743 73.0972 28.9815 74.7339 28.9815C76.369 28.9815 77.7758 30.2743 77.7758 32.1716C77.7758 34.0442 76.369 35.3601 74.7339 35.3601ZM60.6758 28.5223V30.7583H66.1522C65.992 32.0077 65.5638 32.9262 64.9072 33.5664C64.1078 34.3396 62.8628 35.1978 60.6758 35.1978C57.3056 35.1978 54.6665 32.5458 54.6665 29.2599C54.6665 25.9739 57.3056 23.3219 60.6758 23.3219C62.4981 23.3219 63.8239 24.0163 64.8025 24.9162L66.4186 23.3405C65.0499 22.0663 63.2292 21.0875 60.6758 21.0875C56.0542 21.0875 52.1702 24.7539 52.1702 29.2599C52.1702 33.7659 56.0542 37.4322 60.6758 37.4322C63.1737 37.4322 65.0499 36.6343 66.5249 35.1375C68.0363 33.6638 68.5073 31.5917 68.5073 29.9186C68.5073 29.399 68.4629 28.9212 68.3836 28.5223H60.6758ZM118.161 30.2557C117.716 29.0789 116.34 26.9094 113.54 26.9094C110.764 26.9094 108.453 29.0418 108.453 32.1716C108.453 35.1189 110.74 37.4322 113.806 37.4322C116.285 37.4322 117.716 35.9586 118.304 35.1003L116.464 33.905C115.85 34.7803 115.015 35.3601 113.806 35.3601C112.606 35.3601 111.744 34.8236 111.192 33.7659L118.41 30.8541L118.161 30.2557ZM110.802 32.0077C110.74 29.9789 112.418 28.9398 113.621 28.9398C114.563 28.9398 115.362 29.399 115.628 30.0562L110.802 32.0077ZM104.936 37.1121H107.308V21.6488H104.936V37.1121ZM101.05 28.0816H100.971C100.438 27.4661 99.4213 26.9094 98.1334 26.9094C95.4309 26.9094 92.96 29.2227 92.96 32.1886C92.96 35.1375 95.4309 37.4322 98.1334 37.4322C99.4213 37.4322 100.438 36.8709 100.971 36.2369H101.05V36.9915C101.05 39.0033 99.9478 40.0842 98.1699 40.0842C96.7203 40.0842 95.8211 39.0636 95.45 38.2054L93.3866 39.045C93.9814 40.4398 95.5562 42.1562 98.1699 42.1562C100.952 42.1562 103.299 40.5604 103.299 36.6776V27.2295H101.05V28.0816ZM98.3365 35.3601C96.7013 35.3601 95.3326 34.0256 95.3326 32.1886C95.3326 30.3346 96.7013 28.9815 98.3365 28.9815C99.9478 28.9815 101.218 30.3346 101.218 32.1886C101.218 34.0256 99.9478 35.3601 98.3365 35.3601ZM129.269 21.6488H123.595V37.1121H125.961V31.2531H129.269C131.897 31.2531 134.475 29.399 134.475 26.4502C134.475 23.5029 131.891 21.6488 129.269 21.6488ZM129.331 29.1021H125.961V23.7998H129.331C131.098 23.7998 132.107 25.2301 132.107 26.4502C132.107 27.647 131.098 29.1021 129.331 29.1021ZM143.959 26.8801C142.249 26.8801 140.471 27.6161 139.74 29.2475L141.84 30.1057C142.292 29.2475 143.123 28.9691 144.002 28.9691C145.229 28.9691 146.474 29.6882 146.493 30.9577V31.1201C146.065 30.8789 145.148 30.5217 144.021 30.5217C141.759 30.5217 139.455 31.7355 139.455 34.0009C139.455 36.073 141.307 37.4075 143.389 37.4075C144.982 37.4075 145.86 36.707 146.412 35.8921H146.493V37.0874H148.779V31.1557C148.779 28.414 146.679 26.8801 143.959 26.8801ZM143.673 35.3539C142.899 35.3539 141.821 34.9797 141.821 34.0442C141.821 32.8473 143.166 32.3881 144.33 32.3881C145.372 32.3881 145.86 32.6123 146.493 32.9076C146.308 34.3396 145.044 35.3539 143.673 35.3539ZM157.105 27.2187L154.385 33.922H154.304L151.492 27.2187H148.94L153.165 36.5864L150.755 41.799H153.227L159.738 27.2187H157.105ZM135.775 37.1121H138.148V21.6488H135.775V37.1121Z" fill="white"/>
<defs>
<linearGradient id="paint0_linear_2676_3013" x1="27.7585" y1="38.7079" x2="7.00421" y2="17.4215" gradientUnits="userSpaceOnUse">
<stop stop-color="#00A0FF"/>
<stop offset="0.0066" stop-color="#00A1FF"/>
<stop offset="0.2601" stop-color="#00BEFF"/>
<stop offset="0.5122" stop-color="#00D2FF"/>
<stop offset="0.7604" stop-color="#00DFFF"/>
<stop offset="1" stop-color="#00E3FF"/>
</linearGradient>
<linearGradient id="paint1_linear_2676_3013" x1="43.0278" y1="24.7399" x2="12.3272" y2="24.7399" gradientUnits="userSpaceOnUse">
<stop stop-color="#FFE000"/>
<stop offset="0.4087" stop-color="#FFBD00"/>
<stop offset="0.7754" stop-color="#FFA500"/>
<stop offset="1" stop-color="#FF9C00"/>
</linearGradient>
<linearGradient id="paint2_linear_2676_3013" x1="31.5995" y1="21.9001" x2="3.45499" y2="-6.96603" gradientUnits="userSpaceOnUse">
<stop stop-color="#FF3A44"/>
<stop offset="1" stop-color="#C31162"/>
</linearGradient>
<linearGradient id="paint3_linear_2676_3013" x1="9.35805" y1="49.2636" x2="21.9258" y2="36.3737" gradientUnits="userSpaceOnUse">
<stop stop-color="#32A071"/>
<stop offset="0.0685" stop-color="#2DA771"/>
<stop offset="0.4762" stop-color="#15CF74"/>
<stop offset="0.8009" stop-color="#06E775"/>
<stop offset="1" stop-color="#00F076"/>
</linearGradient>
</defs>
</svg>
