<svg width="28" height="31" viewBox="0 0 28 31" fill="none" xmlns="http://www.w3.org/2000/svg">
<path d="M13.8053 3.07554C14.2336 3.08073 14.6176 2.81258 14.7603 2.40871M13.8053 3.07554L14.7603 2.40871M13.8053 3.07554C14.0198 3.07814 14.2337 3.14957 14.4118 3.28982L24.6187 11.3278M13.8053 3.07554L24.6187 11.3278M14.7603 2.40871C14.903 2.00496 14.7727 1.5552 14.4364 1.29018M14.7603 2.40871L14.4364 1.29018M14.4364 1.29018L26.2838 10.62C26.4748 10.7704 26.5862 11 26.5862 11.2431V26.0931C26.5862 27.0164 26.224 27.9038 25.5763 28.5596C24.9283 29.2158 24.0472 29.5862 23.1264 29.5862H4.45977C3.53903 29.5862 2.65796 29.2158 2.00987 28.5596C1.36218 27.9038 1 27.0164 1 26.0931V11.2431C1 11 1.11146 10.7704 1.30242 10.62L0.686051 9.83732L1.30242 10.62L13.1496 1.29039C12.8134 1.55545 12.6833 2.00507 12.8259 2.40872M14.4364 1.29018L12.8259 2.40872M12.8259 2.40872C12.9686 2.81258 13.3526 3.08073 13.7809 3.07554M12.8259 2.40872L13.7809 3.07554M13.7809 3.07554H13.7809C13.5664 3.07814 13.3525 3.14957 13.1744 3.28982L2.96752 11.3278C2.72674 11.5174 2.58621 11.8069 2.58621 12.1134V26.0931C2.58621 26.6022 2.78611 27.0883 3.13843 27.445C3.49075 27.8017 3.96632 28 4.45977 28H23.1264C23.6199 28 24.0955 27.8017 24.4478 27.445C24.8001 27.0883 25 26.6022 25 26.0931V12.1134C25 11.8069 24.8595 11.5174 24.6187 11.3278M13.7809 3.07554L24.6187 11.3278M14.4118 1.27081C14.0491 0.985185 13.538 0.985001 13.1751 1.27025L13.3024 1.17001C13.5903 0.943329 13.9959 0.943329 14.2838 1.17001L14.4118 1.27081Z" stroke="#A9A9A9" stroke-width="2" stroke-linecap="round" stroke-linejoin="round"/>
</svg>
