<svg width="18" height="19" viewBox="0 0 18 19" fill="none" xmlns="http://www.w3.org/2000/svg">
<path fill-rule="evenodd" clip-rule="evenodd" d="M8.35739 0.212344C8.73681 -0.0707814 9.26319 -0.0707814 9.64261 0.212344L17.5838 6.13809C17.8461 6.33382 18 6.63789 18 6.9604V16.2723C18 17.0019 17.6977 17.6977 17.1661 18.2077C16.6352 18.7171 15.9191 19 15.1765 19H2.82353C2.08089 19 1.36484 18.7171 0.833893 18.2077C0.302289 17.6977 0 17.0019 0 16.2723V6.9604C0 6.63789 0.153901 6.33382 0.416209 6.13809L8.35739 0.212344ZM2.11765 7.47213V16.2723C2.11765 16.4407 2.18721 16.6062 2.3175 16.7312C2.44844 16.8568 2.63011 16.9307 2.82353 16.9307H15.1765C15.3699 16.9307 15.5516 16.8568 15.6825 16.7312C15.8128 16.6062 15.8824 16.4407 15.8824 16.2723V7.47213L9 2.33648L2.11765 7.47213Z" fill="#A9A9A9"/>
</svg>
