<svg width="16" height="18" viewBox="0 0 16 18" fill="none" xmlns="http://www.w3.org/2000/svg">
<path d="M12.6664 5.66671C13.955 5.66671 14.9997 4.62203 14.9997 3.33335C14.9997 2.04468 13.955 1 12.6664 1C11.3777 1 10.333 2.04468 10.333 3.33335C10.333 4.62203 11.3777 5.66671 12.6664 5.66671Z" stroke="white" stroke-width="1.55557" stroke-linecap="round" stroke-linejoin="round"/>
<path d="M3.33335 11.111C4.62203 11.111 5.66671 10.0664 5.66671 8.77769C5.66671 7.48901 4.62203 6.44434 3.33335 6.44434C2.04468 6.44434 1 7.48901 1 8.77769C1 10.0664 2.04468 11.111 3.33335 11.111Z" stroke="white" stroke-width="1.55557" stroke-linecap="round" stroke-linejoin="round"/>
<path d="M12.6664 16.5554C13.955 16.5554 14.9997 15.5107 14.9997 14.222C14.9997 12.9333 13.955 11.8887 12.6664 11.8887C11.3777 11.8887 10.333 12.9333 10.333 14.222C10.333 15.5107 11.3777 16.5554 12.6664 16.5554Z" stroke="white" stroke-width="1.55557" stroke-linecap="round" stroke-linejoin="round"/>
<path d="M5.34766 9.95312L10.6599 13.0487" stroke="white" stroke-width="1.55557" stroke-linecap="round" stroke-linejoin="round"/>
<path d="M10.6521 4.50781L5.34766 7.60339" stroke="white" stroke-width="1.55557" stroke-linecap="round" stroke-linejoin="round"/>
</svg>
