<svg width="14" height="14" viewBox="0 0 14 14" fill="none" xmlns="http://www.w3.org/2000/svg">
<path d="M11.4857 2.51431C10.9524 1.98101 10.2291 1.6814 9.47485 1.6814C8.72064 1.6814 7.99732 1.98101 7.46401 2.51431L6.38124 3.59706C6.34056 3.63768 6.30831 3.68591 6.28626 3.73901C6.26426 3.79211 6.25288 3.84902 6.25288 3.9065C6.25284 3.96399 6.26417 4.02091 6.28618 4.07403C6.30814 4.12714 6.34038 4.1754 6.38103 4.21604C6.42167 4.25669 6.46992 4.28893 6.52304 4.31092C6.57615 4.33291 6.63307 4.34421 6.69056 4.3442C6.74804 4.34417 6.80496 4.33283 6.85808 4.3108C6.91114 4.28877 6.9594 4.2565 7 4.21582L8.08277 3.13307C8.26556 2.95026 8.4826 2.80524 8.72147 2.7063C8.96031 2.60736 9.21633 2.55644 9.47485 2.55643C9.73337 2.55643 9.98939 2.60735 10.2282 2.70628C10.4671 2.80522 10.6841 2.95023 10.8669 3.13304C11.0498 3.31585 11.1947 3.53288 11.2937 3.77173C11.3926 4.01059 11.4436 4.26659 11.4436 4.52513C11.4436 4.78365 11.3927 5.03967 11.2937 5.2785C11.1948 5.51738 11.0498 5.73442 10.867 5.91721L9.32024 7.46408C8.95072 7.83272 8.45005 8.03979 7.92811 8.03979C7.40613 8.03979 6.90546 7.83272 6.53599 7.46408C6.45391 7.38209 6.34266 7.33611 6.22668 7.33615C6.11069 7.3362 5.99944 7.38227 5.91745 7.4643C5.83542 7.54629 5.78935 7.65754 5.78931 7.77352C5.78926 7.8895 5.83524 8.00076 5.91723 8.08284C6.45098 8.61532 7.17412 8.91435 7.92807 8.91435C8.68201 8.91435 9.4052 8.61532 9.93895 8.08284L11.4857 6.53597C12.019 6.00265 12.3186 5.27934 12.3186 4.52513C12.3186 3.77094 12.019 3.04763 11.4857 2.51431V2.51431Z" fill="#383838"/>
<path d="M7.00001 9.78422L5.91725 10.8669C5.73446 11.0498 5.51741 11.1948 5.27858 11.2937C5.03971 11.3927 4.78373 11.4436 4.52516 11.4436C4.26664 11.4436 4.01064 11.3927 3.77178 11.2937C3.53293 11.1948 3.3159 11.0498 3.13308 10.867C2.95027 10.6842 2.80526 10.4672 2.70631 10.2283C2.60737 9.98946 2.55645 9.73343 2.55645 9.47491C2.55644 9.21639 2.60737 8.96037 2.7063 8.72154C2.80523 8.48266 2.95025 8.26562 3.13306 8.08283L4.67978 6.53596C5.04929 6.16728 5.54992 5.96021 6.0719 5.96021C6.59388 5.96021 7.09456 6.16728 7.46407 6.53596C7.50467 6.57665 7.55288 6.60894 7.606 6.63094C7.65911 6.65299 7.71603 6.66432 7.77351 6.66437C7.831 6.66437 7.88792 6.65308 7.94103 6.63107C7.99415 6.60907 8.0424 6.57687 8.08305 6.53618C8.12369 6.49554 8.15593 6.44728 8.1779 6.39417C8.1999 6.34106 8.21119 6.28414 8.21119 6.22665C8.21115 6.16916 8.19981 6.11224 8.17781 6.05917C8.15576 6.00606 8.12347 5.95785 8.08283 5.91721C7.54908 5.38472 6.82589 5.08569 6.07195 5.08569C5.318 5.08569 4.59486 5.38472 4.06109 5.91721L2.5143 7.46407C1.98153 7.99747 1.68238 8.72062 1.68262 9.47456C1.68285 10.2285 1.98245 10.9514 2.51555 11.4845C3.04865 12.0176 3.77162 12.3172 4.52551 12.3174C5.27946 12.3177 6.0026 12.0185 6.536 11.4857L7.61877 10.403C7.70071 10.3209 7.74674 10.2096 7.7467 10.0937C7.74665 9.97769 7.70054 9.86647 7.61855 9.78444C7.53652 9.70241 7.42531 9.65634 7.30933 9.6563C7.19335 9.65626 7.08209 9.70228 7.00001 9.78422Z" fill="#383838"/>
</svg>
