<svg width="23" height="23" viewBox="0 0 21 21" fill="none" xmlns="http://www.w3.org/2000/svg">
<path d="M20.1652 3.84304C19.8772 3.54655 19.4839 3.37555 19.0707 3.36715H4.55585L4.3655 1.7491C4.31913 1.40433 4.14847 1.08835 3.88559 0.860518C3.6227 0.632684 3.28567 0.508671 2.93781 0.511776H1.46253C1.2101 0.511776 0.968011 0.612053 0.789515 0.790549C0.61102 0.969044 0.510742 1.21114 0.510742 1.46357C0.510742 1.716 0.61102 1.95809 0.789515 2.13658C0.968011 2.31508 1.2101 2.41536 1.46253 2.41536H2.5095L4.03237 15.217C3.61063 15.466 3.26136 15.821 3.01926 16.2468C2.77716 16.6725 2.65064 17.1542 2.65227 17.644C2.65227 18.4013 2.95311 19.1276 3.48859 19.6631C4.02408 20.1986 4.75035 20.4994 5.50765 20.4994C6.09841 20.4902 6.6728 20.3038 7.15643 19.9644C7.64007 19.625 8.01067 19.1482 8.22025 18.5958H13.2647C13.4743 19.1482 13.8449 19.625 14.3286 19.9644C14.8122 20.3038 15.3866 20.4902 15.9773 20.4994C16.7346 20.4994 17.4609 20.1986 17.9964 19.6631C18.5319 19.1276 18.8327 18.4013 18.8327 17.644C18.8327 16.8867 18.5319 16.1604 17.9964 15.625C17.4609 15.0895 16.7346 14.7886 15.9773 14.7886C15.3866 14.7979 14.8122 14.9842 14.3286 15.3236C13.8449 15.663 13.4743 16.1398 13.2647 16.6922H8.22025C8.04017 16.1981 7.72714 15.7634 7.31567 15.4359C6.90419 15.1084 6.41027 14.9009 5.88836 14.8362L5.79318 13.8369H17.8333C18.173 13.8285 18.4985 13.6994 18.7515 13.4726C19.0044 13.2458 19.1682 12.9362 19.2134 12.5995L20.4984 5.08037C20.5515 4.64037 20.4321 4.19687 20.1652 3.84304ZM16.9291 17.644C16.9291 17.8323 16.8733 18.0163 16.7687 18.1728C16.6642 18.3293 16.5155 18.4513 16.3416 18.5234C16.1677 18.5954 15.9763 18.6142 15.7917 18.5775C15.607 18.5408 15.4374 18.4501 15.3043 18.317C15.1712 18.1839 15.0806 18.0143 15.0438 17.8297C15.0071 17.6451 15.026 17.4537 15.098 17.2798C15.17 17.1059 15.292 16.9572 15.4486 16.8526C15.6051 16.748 15.7891 16.6922 15.9773 16.6922C16.2298 16.6922 16.4719 16.7925 16.6504 16.971C16.8289 17.1495 16.9291 17.3916 16.9291 17.644ZM6.45944 17.644C6.45944 17.8323 6.40362 18.0163 6.29903 18.1728C6.19445 18.3293 6.0458 18.4513 5.87188 18.5234C5.69796 18.5954 5.50659 18.6142 5.32196 18.5775C5.13733 18.5408 4.96774 18.4501 4.83463 18.317C4.70152 18.1839 4.61087 18.0143 4.57414 17.8297C4.53742 17.6451 4.55627 17.4537 4.62831 17.2798C4.70034 17.1059 4.82234 16.9572 4.97886 16.8526C5.13538 16.748 5.3194 16.6922 5.50765 16.6922C5.76008 16.6922 6.00217 16.7925 6.18066 16.971C6.35916 17.1495 6.45944 17.3916 6.45944 17.644ZM17.405 11.9333H5.55524L4.7938 5.27073H18.4996L18.226 6.93637L18.0891 7.76918L17.9523 8.602L17.8155 9.43482L17.6787 10.2676L17.405 11.9333Z" />
</svg>
