<svg width="15" height="13" viewBox="0 0 12 10" xmlns="http://www.w3.org/2000/svg" fill="black" stroke="black" stroke-width="0.2" >
<path fill-rule="evenodd" clip-rule="evenodd" d="M2.51622 3.38485C2.51631 2.97366 2.62268 2.56948 2.82502 2.21153C3.02736 1.85358 3.3188 1.55401 3.67105 1.34189C4.02329 1.12978 4.42439 1.01232 4.83542 1.00092C5.24644 0.989515 5.65344 1.08456 6.0169 1.27682C6.38037 1.46908 6.68796 1.75203 6.90984 2.09822C7.13171 2.4444 7.26033 2.84206 7.28321 3.25261C7.30609 3.66315 7.22246 4.07264 7.04042 4.44134C6.85839 4.81003 6.58414 5.12541 6.24429 5.35687C6.97616 5.6253 7.61095 6.10661 8.06697 6.73886C8.52299 7.3711 8.77937 8.12535 8.80312 8.90453C8.8044 8.94724 8.79725 8.98979 8.78209 9.02975C8.76693 9.0697 8.74404 9.10628 8.71475 9.13739C8.65557 9.20022 8.57387 9.23697 8.4876 9.23956C8.40133 9.24215 8.31757 9.21036 8.25474 9.15119C8.19191 9.09202 8.15516 9.01031 8.15257 8.92404C8.12674 8.07896 7.77288 7.27715 7.16598 6.68851C6.55907 6.09987 5.74682 5.77067 4.90135 5.77067C4.05587 5.77067 3.24362 6.09987 2.63671 6.68851C2.02981 7.27715 1.67595 8.07896 1.65012 8.92404C1.64578 9.00898 1.60835 9.08883 1.54584 9.1465C1.48334 9.20417 1.40074 9.23507 1.31573 9.23257C1.23072 9.23008 1.15007 9.19439 1.09106 9.13315C1.03205 9.07192 0.999363 8.99 1.00001 8.90496C1.02367 8.12571 1.28001 7.37136 1.73603 6.73904C2.19206 6.10671 2.8269 5.62533 3.55883 5.35687C3.23733 5.13819 2.97424 4.84414 2.7925 4.5004C2.61077 4.15666 2.51591 3.77367 2.51622 3.38485ZM4.90156 1.65005C4.44147 1.65005 4.00021 1.83282 3.67488 2.15816C3.34954 2.4835 3.16677 2.92475 3.16677 3.38485C3.16677 3.84494 3.34954 4.28619 3.67488 4.61153C4.00021 4.93687 4.44147 5.11964 4.90156 5.11964C5.36166 5.11964 5.80291 4.93687 6.12825 4.61153C6.45358 4.28619 6.63636 3.84494 6.63636 3.38485C6.63636 2.92475 6.45358 2.4835 6.12825 2.15816C5.80291 1.83282 5.36166 1.65005 4.90156 1.65005Z"/>
<path d="M8.4971 3.38519C8.43291 3.38519 8.37046 3.38953 8.30888 3.3982C8.26588 3.4059 8.22177 3.40486 8.17918 3.39515C8.1366 3.38543 8.0964 3.36723 8.061 3.34164C8.0256 3.31606 7.99571 3.2836 7.97313 3.24621C7.95054 3.20882 7.93572 3.16727 7.92954 3.12402C7.92336 3.08078 7.92596 3.03674 7.93717 2.99452C7.94838 2.9523 7.96799 2.91278 7.99481 2.8783C8.02163 2.84382 8.05512 2.8151 8.09328 2.79385C8.13145 2.77259 8.1735 2.75924 8.21693 2.7546C8.64828 2.69223 9.08811 2.77507 9.46723 2.99006C9.84634 3.20506 10.1432 3.54001 10.3111 3.9422C10.479 4.3444 10.5084 4.791 10.3946 5.21173C10.2809 5.63246 10.0305 6.00343 9.68283 6.26625C10.1939 6.49509 10.6278 6.86693 10.9323 7.3369C11.2367 7.80687 11.3986 8.35489 11.3985 8.91485C11.3985 9.00112 11.3643 9.08385 11.3033 9.14486C11.2423 9.20586 11.1595 9.24013 11.0733 9.24013C10.987 9.24013 10.9043 9.20586 10.8433 9.14486C10.7823 9.08385 10.748 9.00112 10.748 8.91485C10.7479 8.43091 10.592 7.95985 10.3033 7.57146C10.0146 7.18307 9.60845 6.89801 9.14505 6.7585L8.91345 6.68911V5.96223L9.09127 5.87159C9.35485 5.73807 9.56574 5.51962 9.6899 5.2515C9.81406 4.98339 9.84424 4.68125 9.77557 4.39387C9.7069 4.10649 9.54338 3.85064 9.31141 3.66763C9.07944 3.48461 8.79257 3.38511 8.4971 3.38519Z" />
</svg>
