<svg width="26" height="28" viewBox="0 0 26 28" fill="none" xmlns="http://www.w3.org/2000/svg">
<path d="M1.1 6C1.1 3.2938 3.2938 1.1 6 1.1H20C22.7062 1.1 24.9 3.2938 24.9 6V19.24C24.9 20.3556 23.9956 21.26 22.88 21.26H21.5478C19.9529 21.26 18.66 22.5529 18.66 24.1478C18.66 24.7027 18.0368 25.0292 17.5807 24.7133L14.5769 22.6338C13.7739 22.0779 12.8203 21.78 11.8436 21.78H6C3.2938 21.78 1.1 19.5862 1.1 16.88V6Z" stroke="#232426" stroke-width="2.2"/>
<line x1="6.30007" y1="8.25937" x2="18.6601" y2="8.25937" stroke="#232426" stroke-width="2.2" stroke-linecap="round"/>
<line x1="11.5" y1="13.4605" x2="18.66" y2="13.4605" stroke="#232426" stroke-width="2.2" stroke-linecap="round"/>
</svg>
