<svg width="29" height="22" viewBox="0 0 29 22" fill="none" xmlns="http://www.w3.org/2000/svg">
<path d="M18.7499 11C17.5452 11 16.3804 10.4621 15.4687 9.48594C14.5822 8.53379 14.0408 7.26406 13.9452 5.91172C13.8433 4.46914 14.2833 3.14258 15.1839 2.17578C16.0845 1.20898 17.3437 0.6875 18.7499 0.6875C20.1462 0.6875 21.4089 1.21836 22.3066 2.18281C23.213 3.15664 23.6542 4.48086 23.5523 5.91113C23.4544 7.26523 22.9136 8.53437 22.0288 9.48535C21.1195 10.4621 19.9552 11 18.7499 11ZM26.4743 21.3125H11.0261C10.7777 21.3138 10.5324 21.2582 10.3089 21.1498C10.0854 21.0414 9.88977 20.8832 9.73704 20.6873C9.57503 20.475 9.46315 20.2287 9.40978 19.9671C9.35641 19.7054 9.36292 19.435 9.42884 19.1762C9.9222 17.1951 11.1445 15.5521 12.9632 14.4254C14.5775 13.4258 16.6324 12.875 18.7499 12.875C20.9091 12.875 22.9101 13.4023 24.5337 14.4014C26.3566 15.5223 27.5806 17.1746 28.0716 19.1797C28.1367 19.4387 28.1425 19.7091 28.0885 19.9706C28.0346 20.2322 27.9222 20.4782 27.7599 20.6902C27.6073 20.8852 27.4121 21.0426 27.1893 21.1505C26.9665 21.2584 26.7219 21.3138 26.4743 21.3125ZM7.67571 11.2344C5.6138 11.2344 3.80091 9.31719 3.63275 6.96113C3.54954 5.7541 3.92571 4.63789 4.68743 3.81934C5.44095 3.00898 6.50384 2.5625 7.67571 2.5625C8.84759 2.5625 9.90228 3.01133 10.6599 3.82637C11.4275 4.65137 11.8025 5.76523 11.7146 6.96231C11.5464 9.31777 9.73411 11.2344 7.67571 11.2344ZM11.523 13.0772C10.4923 12.5732 9.15462 12.3213 7.6763 12.3213C5.95013 12.3213 4.27376 12.7713 2.9554 13.5881C1.46068 14.5156 0.455207 15.8662 0.0491521 17.4969C-0.0102707 17.7314 -0.015891 17.9764 0.0327115 18.2134C0.081314 18.4504 0.182881 18.6734 0.329816 18.8656C0.469239 19.0446 0.647854 19.1892 0.851925 19.2884C1.056 19.3875 1.28009 19.4385 1.50696 19.4375H8.01087C8.12065 19.4375 8.22693 19.3989 8.3112 19.3286C8.39547 19.2582 8.45238 19.1605 8.472 19.0525C8.47845 19.0156 8.48665 18.9787 8.49603 18.9424C8.9929 16.9467 10.1572 15.2604 11.8775 14.0311C11.9407 13.9854 11.9916 13.9248 12.0255 13.8545C12.0594 13.7843 12.0753 13.7067 12.0716 13.6288C12.0679 13.5509 12.0449 13.4751 12.0045 13.4083C11.9642 13.3416 11.9078 13.286 11.8406 13.2465C11.7486 13.1926 11.6431 13.1357 11.523 13.0772Z" fill="#333333"/>
</svg>
