<svg width="25" height="26" viewBox="0 0 25 26" fill="none" xmlns="http://www.w3.org/2000/svg">
  <path fill-rule="evenodd" clip-rule="evenodd" d="M10.7358 20.561C11.2119 21.0913 11.823 21.3827 12.4572 21.3827C13.0941 21.3827 13.709 21.0913 14.186 20.5601C14.4415 20.278 14.8771 20.255 15.1593 20.5096C15.4423 20.7642 15.4653 21.2007 15.2107 21.4829C14.4681 22.3073 13.4912 22.7613 12.4581 22.7613H12.4563C11.426 22.7604 10.4509 22.3063 9.71103 21.4819C9.45645 21.1998 9.47943 20.7632 9.7625 20.5096C10.0456 20.2541 10.4812 20.277 10.7358 20.561ZM16.0024 17.1578C16.0024 16.9449 13.618 18.1746 13.6854 17.9847L5.12149 17.9847C4.63277 17.9845 4.19275 17.6901 4.00573 17.239C3.819 16.7876 3.9223 16.2681 4.26756 15.9229C6.32885 13.8616 6.32885 12.1385 6.32885 9.53122C6.32915 6.20187 9.0377 3.49332 12.3667 3.49332C15.6958 3.49332 18.4043 6.20187 18.4047 9.53118C18.4046 10.9367 18.4044 13.8613 20.466 15.9228C20.8115 16.2684 20.9148 16.7878 20.7278 17.239C20.5411 17.6904 20.1008 17.9844 19.6123 17.9844L11.3871 17.9847C11.8873 17.9831 16.0024 16.9449 16.0024 17.1578ZM16.0024 17.1578C16.0024 18.158 15.3691 17.5247 16.3693 17.5247C17.3695 17.5247 16.0024 18.158 16.0024 17.1578ZM17.6253 17.8631C17.6253 18.1961 15.8852 17.2412 15.5521 17.2412C15.2191 17.2412 13.895 17.9233 13.895 17.5902C13.895 17.2572 13.5359 17.9625 13.8689 17.9625C14.2019 17.9625 17.6253 17.53 17.6253 17.8631ZM17.1972 9.53118C17.1972 10.9987 17.1972 14.3614 19.6126 16.7767C17.1972 16.7768 7.53684 16.7768 5.12146 16.7768C7.53654 14.3617 7.53654 12.1991 7.53658 9.53149C7.53658 6.86394 9.6992 4.70132 12.367 4.70102C15.0349 4.70075 17.1975 6.86337 17.1972 9.53118Z" fill="#A9A9A9" stroke="#A9A9A9" stroke-width="1"/>
</svg>
