<svg width="17" height="19" viewBox="0 0 17 19" fill="none" xmlns="http://www.w3.org/2000/svg">
<path fill-rule="evenodd" clip-rule="evenodd" d="M4.00006 6.33366C4.00006 3.84838 6.01479 1.83366 8.50006 1.83366C10.9853 1.83366 13.0001 3.84837 13.0001 6.33366V7.21531C13.0001 8.94272 13.4152 10.6395 14.2039 12.165C14.2915 12.3345 14.3838 12.5019 14.4806 12.667H2.51949C2.61632 12.5019 2.70859 12.3345 2.79624 12.1649C3.58494 10.6395 4.00006 8.94269 4.00006 7.21531V6.33366ZM14.6667 7.21531C14.6667 8.97159 15.1744 10.6905 16.1285 12.165C16.7336 13.1 16.0624 14.3337 14.9488 14.3337H2.05141C0.937708 14.3337 0.266567 13.0999 0.871603 12.1649C1.82576 10.6905 2.3334 8.9716 2.3334 7.21531V6.33366C2.3334 2.9279 5.09431 0.166992 8.50006 0.166992C11.9058 0.166992 14.6667 2.92789 14.6667 6.33366V7.21531ZM8.92305 16.8876C9.55997 16.8876 10.1748 16.5962 10.6518 16.065C10.9073 15.7828 11.343 15.7599 11.6251 16.0145C11.9082 16.269 11.9312 16.7056 11.6766 16.9877C10.934 17.8121 9.957 18.2662 8.92397 18.2662H8.92213C7.89186 18.2652 6.91673 17.8112 6.17688 16.9868C5.9223 16.7047 5.94528 16.2681 6.22835 16.0145C6.51142 15.759 6.94706 15.7819 7.20164 16.0659C7.67772 16.5962 8.2889 16.8876 8.92305 16.8876Z" fill="#A9A9A9"/>
</svg>
