<svg width="18" height="18" viewBox="0 0 18 18" fill="none" xmlns="http://www.w3.org/2000/svg">
<path fill-rule="evenodd" clip-rule="evenodd" d="M8.08139 3.82937C8.60876 4.41389 8.44155 5.07609 7.97526 5.70441C7.8647 5.85338 7.73727 6.00016 7.58337 6.1619C7.50949 6.23953 7.45189 6.29791 7.3314 6.41851C7.05776 6.69239 6.82774 6.92252 6.64131 7.10891C6.5509 7.1993 7.16814 8.4326 8.36604 9.63155C9.56328 10.8298 10.7966 11.4475 10.8875 11.3566L11.5771 10.6666C11.9569 10.2865 12.158 10.1032 12.4343 9.92187C13.0089 9.54498 13.6355 9.44257 14.164 9.91511C15.8897 11.1494 16.8662 11.9068 17.3446 12.4038C18.2777 13.3733 18.1554 14.8655 17.3499 15.7169C17.0706 16.0121 16.7164 16.3664 16.2981 16.7696C13.7677 19.3012 8.42741 17.7606 4.33465 13.6642C0.240956 9.56691 -1.29897 4.22664 1.22611 1.70045C1.67944 1.24005 1.82891 1.09068 2.27041 0.655695C3.0924 -0.154162 4.65369 -0.280969 5.60279 0.656496C6.10203 1.14961 6.89793 2.17356 8.08139 3.82937ZM12.8493 11.9392L12.1596 12.6292C10.9871 13.8022 8.99043 12.8024 7.09367 10.9039C5.19561 9.00421 4.19678 7.00846 5.36962 5.83585C5.5558 5.6497 5.78561 5.41979 6.05904 5.14612C6.16936 5.0357 6.21982 4.98455 6.28039 4.9209C6.36292 4.83417 6.43074 4.758 6.48503 4.6906C5.4362 3.22974 4.72322 2.31692 4.33886 1.93727C4.14036 1.7412 3.69589 1.7773 3.53271 1.93807C3.09752 2.36684 2.95447 2.5098 2.50297 2.96831C0.879089 4.59293 2.12223 8.90396 5.60701 12.3918C9.0907 15.8786 13.4015 17.1222 15.0378 15.4854C15.4496 15.0883 15.7852 14.7525 16.0434 14.4796C16.2301 14.2823 16.2634 13.8753 16.0487 13.6522C15.6911 13.2807 14.8157 12.5982 13.304 11.5127C13.1938 11.6014 13.0583 11.73 12.8493 11.9392Z" fill="#232324"/>
</svg>
