<svg width="30" height="30" viewBox="0 0 30 30" fill="none" xmlns="http://www.w3.org/2000/svg">
<path d="M17.8122 1.62372L25.1775 5.87613C26.9179 6.88094 27.99 8.7379 27.99 10.7475V19.2523C27.99 21.2619 26.9179 23.1189 25.1775 24.1237L17.8122 28.3761C16.0718 29.3809 13.9275 29.3809 12.1872 28.3761L4.82178 24.1237C3.0814 23.1189 2.00928 21.2619 2.00928 19.2523V10.7475C2.00928 8.7379 3.0814 6.88094 4.82178 5.87613L12.1872 1.62372C13.9275 0.618915 16.0718 0.618915 17.8122 1.62372ZM13.3204 3.14208L13.1247 3.24752L5.75928 7.49993C4.66009 8.13454 3.96075 9.27904 3.89018 10.5369L3.88428 10.7475V19.2523C3.88428 20.5216 4.52577 21.6995 5.57982 22.3895L5.75928 22.4999L13.1247 26.7523C14.2205 27.385 15.5564 27.4201 16.6789 26.8578L16.8747 26.7523L24.24 22.4999C25.3392 21.8653 26.0386 20.7208 26.1091 19.463L26.115 19.2523V10.7475C26.115 9.47829 25.4735 8.30039 24.4195 7.61035L24.24 7.49993L16.8747 3.24752C15.7789 2.61486 14.4429 2.57972 13.3204 3.14208ZM21.5812 10.835C21.8243 11.2921 21.6507 11.8598 21.1936 12.1029L15.9264 14.903L15.9264 27.2489C15.9264 27.7667 15.5067 28.1864 14.9889 28.1864C14.4711 28.1864 14.0514 27.7667 14.0514 27.2489L14.0514 14.903L8.78423 12.1029C8.32707 11.8598 8.15352 11.2921 8.3966 10.835C8.63967 10.3778 9.20733 10.2043 9.66449 10.4473L14.9889 13.2774L20.3133 10.4473C20.7705 10.2043 21.3381 10.3778 21.5812 10.835Z" fill="#232324"/>
</svg>
