<svg width="18" height="19" viewBox="0 0 18 19" fill="none" xmlns="http://www.w3.org/2000/svg">
<path fill-rule="evenodd" clip-rule="evenodd" d="M6.33337 4.66667C6.33337 3.19391 7.52728 2 9.00004 2C10.4728 2 11.6667 3.19391 11.6667 4.66667C11.6667 6.13943 10.4728 7.33333 9.00004 7.33333C7.52728 7.33333 6.33337 6.13943 6.33337 4.66667ZM9.00004 0C6.42271 0 4.33337 2.08934 4.33337 4.66667C4.33337 7.244 6.42271 9.33333 9.00004 9.33333C11.5774 9.33333 13.6667 7.244 13.6667 4.66667C13.6667 2.08934 11.5774 0 9.00004 0ZM5.33329 11C4.09561 11 2.90863 11.4917 2.03346 12.3668C1.15829 13.242 0.666626 14.429 0.666626 15.6667V17.5C0.666626 18.0523 1.11434 18.5 1.66663 18.5C2.21891 18.5 2.66663 18.0523 2.66663 17.5V15.6667C2.66663 14.9594 2.94758 14.2811 3.44767 13.781C3.94777 13.281 4.62605 13 5.33329 13H12.6666C13.3739 13 14.0521 13.281 14.5522 13.781C15.0523 14.2811 15.3333 14.9594 15.3333 15.6667V17.5C15.3333 18.0523 15.781 18.5 16.3333 18.5C16.8856 18.5 17.3333 18.0523 17.3333 17.5V15.6667C17.3333 14.429 16.8416 13.242 15.9665 12.3668C15.0913 11.4917 13.9043 11 12.6666 11H5.33329Z" fill="#A9A9A9"/>
</svg>
