<svg width="85" height="71" viewBox="0 0 85 71" fill="none" xmlns="http://www.w3.org/2000/svg">
<path fill-rule="evenodd" clip-rule="evenodd" d="M30.7029 0.634121C12.4671 12.3453 2.33636 25.9763 0.310552 41.5268C-2.84317 65.7354 18.806 77.5848 29.7755 66.9382C40.7449 56.2915 34.1694 42.778 26.2264 39.0842C18.2835 35.3901 13.4261 36.6767 14.2734 31.7403C15.1207 26.8042 26.4211 13.1181 36.349 6.74427C37.0077 6.18416 37.2583 5.09737 36.6241 4.27283C36.2069 3.73064 35.3886 2.66721 34.1694 1.08247C33.1032 -0.303315 32.0817 -0.251444 30.7029 0.634121Z" fill="#FF0000"/>
<path fill-rule="evenodd" clip-rule="evenodd" d="M78.7067 0.634121C60.4711 12.3453 50.3403 25.9763 48.3144 41.5268C45.1608 65.7354 66.8101 77.5848 77.7795 66.9382C88.7489 56.2915 82.1734 42.778 74.2304 39.0842C66.2875 35.3901 61.4298 36.6767 62.2774 31.7403C63.1247 26.8042 74.4251 13.1181 84.353 6.74427C85.0117 6.18416 85.2623 5.09737 84.6279 4.27283C84.2109 3.73064 83.3927 2.66721 82.1734 1.08247C81.1072 -0.303315 80.0858 -0.251444 78.7067 0.634121Z" fill="#FF0000"/>
</svg>
