<svg width="26" height="27" viewBox="0 0 26 27" fill="none" xmlns="http://www.w3.org/2000/svg">
<path d="M6.49603 19.5814C6.17873 19.2641 6.17873 18.7496 6.49603 18.4323L11.8449 13.0835C12.1622 12.7662 12.6766 12.7662 12.9939 13.0835C13.3112 13.4008 13.3112 13.9152 12.9939 14.2325L7.64508 19.5814C7.32778 19.8987 6.81333 19.8987 6.49603 19.5814Z" fill="#F31D29" stroke="#F31D29" stroke-width="0.619048" stroke-linejoin="round"/>
<path d="M13.8125 24.4561C13.7096 24.4564 13.6076 24.4371 13.5119 24.3992C13.3787 24.3462 13.262 24.2588 13.1736 24.1461C13.0851 24.0334 13.028 23.8993 13.0081 23.7574L12.3119 18.8841C12.2477 18.4348 12.5607 18.0187 13.0102 17.9558C13.4581 17.8931 13.8722 18.2048 13.9359 18.6525L14.43 22.1242L17.0625 20.0036V13.8936C17.0619 13.7867 17.0824 13.6807 17.1228 13.5817C17.1632 13.4827 17.2228 13.3926 17.2981 13.3167L20.605 10.0099C21.2864 9.33308 21.8268 8.52791 22.195 7.64092C22.5632 6.75392 22.7518 5.80273 22.75 4.84235V3.3311H21.2387C20.2784 3.32928 19.3272 3.51792 18.4402 3.8861C17.5532 4.25429 16.748 4.79471 16.0712 5.4761L12.7644 8.78298C12.6884 8.85828 12.5984 8.91786 12.4994 8.95829C12.4004 8.99873 12.2944 9.01922 12.1875 9.0186H6.07748L3.95685 11.6674L7.42855 12.1614C7.87629 12.2252 8.18797 12.6393 8.12526 13.0872C8.06233 13.5367 7.64631 13.8496 7.19699 13.7854L2.32373 13.0892C2.18182 13.0693 2.0477 13.0122 1.93497 12.9238C1.82224 12.8353 1.73492 12.7186 1.68185 12.5855C1.62813 12.4514 1.6111 12.3055 1.63252 12.1627C1.65395 12.0199 1.71304 11.8854 1.80373 11.773L5.05373 7.71048C5.12857 7.61323 5.22448 7.5342 5.33424 7.47932C5.444 7.42444 5.56477 7.39513 5.68748 7.3936H11.8544L14.9175 4.32235C15.7455 3.48963 16.7307 2.82958 17.8158 2.38047C18.9009 1.93137 20.0644 1.70215 21.2387 1.70611H22.75C23.181 1.70611 23.5943 1.87731 23.899 2.18206C24.2038 2.4868 24.375 2.90013 24.375 3.3311V4.84235C24.3789 6.01672 24.1497 7.18018 23.7006 8.26528C23.2515 9.35038 22.5915 10.3355 21.7587 11.1636L18.6875 14.2267V20.3936C18.6869 20.5156 18.6589 20.636 18.6054 20.7457C18.552 20.8554 18.4745 20.9517 18.3787 21.0274L14.3162 24.2774C14.1733 24.392 13.9957 24.455 13.8125 24.4561Z" fill="#F31D29" stroke="#F31D29" stroke-width="0.619048"/>
</svg>
