<svg width="29" height="27" viewBox="0 0 29 27" fill="none" xmlns="http://www.w3.org/2000/svg">
<path d="M3.07812 10.9453V22.4453C3.07813 23.1231 3.34737 23.7731 3.82663 24.2524C4.30589 24.7316 4.95591 25.0009 5.63368 25.0009H23.5226C24.2003 25.0009 24.8504 24.7316 25.3296 24.2524C25.8089 23.7731 26.0781 23.1231 26.0781 22.4453V10.9453" stroke="#C1C3C6" stroke-width="2.3"/>
<path d="M18.1979 24.9996V17.3329C18.1979 16.6551 17.9287 16.0051 17.4494 15.5258C16.9702 15.0466 16.3201 14.7773 15.6424 14.7773H13.0868C12.409 14.7773 11.759 15.0466 11.2798 15.5258C10.8005 16.0051 10.5312 16.6551 10.5312 17.3329V24.9996" stroke="#C1C3C6" stroke-width="2.3" stroke-miterlimit="16"/>
<path d="M27.1238 10.1318L24.9592 2.55583C24.9134 2.39566 24.8167 2.25477 24.6836 2.15448C24.5506 2.05419 24.3885 1.99996 24.2219 2H19.0508L19.6577 9.28845C19.6671 9.40559 19.7042 9.51882 19.766 9.6188C19.8277 9.71877 19.9124 9.80263 20.0129 9.86344C20.5113 10.1612 21.4849 10.7106 22.2452 10.9444C23.5434 11.3444 25.4397 11.2 26.5207 11.0671C26.6258 11.0535 26.7266 11.0172 26.8162 10.9606C26.9058 10.904 26.982 10.8285 27.0394 10.7395C27.0968 10.6504 27.1341 10.5499 27.1487 10.4449C27.1633 10.34 27.1548 10.2331 27.1238 10.1318Z" stroke="#C1C3C6" stroke-width="2.3"/>
<path d="M17.1313 10.9444C17.8571 10.7208 18.7771 10.211 19.2908 9.90689C19.4103 9.83539 19.5073 9.73166 19.5706 9.60759C19.6338 9.48352 19.6609 9.34412 19.6486 9.20539L19.048 2H10.1036L9.50301 9.20539C9.49045 9.34433 9.51737 9.48399 9.58066 9.60832C9.64395 9.73264 9.74105 9.83657 9.86079 9.90817C10.3745 10.211 11.2945 10.7208 12.0202 10.9444C13.928 11.5322 15.2236 11.5322 17.1313 10.9444Z" stroke="#C1C3C6" stroke-width="2.3"/>
<path d="M4.19565 2.55583L2.0311 10.1331C2.00054 10.2342 1.99238 10.3408 2.00716 10.4455C2.02195 10.5501 2.05933 10.6503 2.11671 10.7391C2.1741 10.8278 2.25011 10.903 2.33947 10.9594C2.42884 11.0159 2.52941 11.0522 2.63421 11.0658C3.71393 11.2 5.61143 11.3431 6.90965 10.9444C7.66993 10.7106 8.64488 10.1612 9.14193 9.86472C9.24266 9.80378 9.32741 9.71973 9.38919 9.61951C9.45096 9.5193 9.48797 9.40581 9.49715 9.28844L10.1041 2H4.93293C4.76634 1.99996 4.60426 2.05419 4.47123 2.15448C4.33821 2.25477 4.24147 2.39566 4.19565 2.55583Z" stroke="#C1C3C6" stroke-width="2.3"/>
</svg>
