<svg width="15" height="13" viewBox="0 0 21 17" fill="none" xmlns="http://www.w3.org/2000/svg">
<path d="M10.8419 0.982294C10.8419 0.221061 11.6271 -0.212365 12.2296 0.10503L12.3556 0.184689L12.4605 0.274806L20.1055 7.7908C20.4227 8.10259 20.4836 8.5824 20.2882 8.95871L20.2029 9.09444L20.1057 9.20569L12.4606 16.7241C11.9247 17.2512 11.0758 16.9704 10.882 16.3049L10.8509 16.1566L10.8419 16.0167V12.4544L10.4038 12.4938C9.98068 12.539 9.5601 12.605 9.1419 12.6917C6.53448 13.2328 4.01961 14.5824 1.58543 16.7559C0.923402 17.3471 -0.100863 16.7882 0.00802136 15.8951C0.834649 9.11563 4.22795 5.30287 10.0106 4.67089L10.4601 4.62855L10.8419 4.60286V0.982294ZM12.5419 2.73877V6.19234L10.5847 6.32399C7.90941 6.53828 5.93698 7.47023 4.52743 8.99047C3.39008 10.2171 2.52437 11.9296 2.01745 14.2043C4.42383 12.4009 6.96542 11.2708 9.64646 10.8766L10.2374 10.8018L12.5419 10.5948V14.2599L18.4004 8.49837L12.5419 2.73877Z" fill="black"/>
</svg>
