<svg width="24" height="24" viewBox="0 0 24 24" fill="none" xmlns="http://www.w3.org/2000/svg">
<path d="M12 0C5.38443 0 0 5.38443 0 12C0 18.6156 5.38443 24 12 24C18.6156 24 24 18.6156 24 12C24 5.38443 18.6156 0 12 0ZM12 2C17.5347 2 22 6.46531 22 12C22 17.5347 17.5347 22 12 22C6.46531 22 2 17.5347 2 12C2 6.46531 6.46531 2 12 2ZM12.002 4L12 12L4.83203 15.5508C5.67976 17.2621 7.11171 18.6137 8.86908 19.3613C10.6264 20.1088 12.5933 20.2031 14.4141 19.627C16.2349 19.0506 17.7896 17.8418 18.7969 16.2191C19.8041 14.5964 20.1977 12.6669 19.9062 10.7793C19.6148 8.89183 18.6578 7.17088 17.2081 5.92754C15.7584 4.68419 13.9118 4.00048 12.002 4Z" fill="black"/>
</svg>
