<svg width="8" height="8" viewBox="0 0 8 8" fill="none" xmlns="http://www.w3.org/2000/svg">
<path d="M7.86325 1.91946H6.78291L7.24786 0.174497C7.24786 0.161074 7.24786 0.147651 7.24786 0.134228C7.24786 0.0671141 7.19316 0 7.11111 0H6.24957C6.1812 0 6.1265 0.0536912 6.11282 0.107382L5.64786 1.91946H3.48718L3.94177 0.213407C3.94865 0.187577 3.95214 0.16096 3.95214 0.134228C3.95214 0.0671141 3.89744 0 3.81538 0H2.95385C2.88547 0 2.83077 0.0536912 2.81709 0.107382L2.33846 1.90604H1.13504C1.06667 1.90604 1.02564 1.94631 0.998291 2L0.779487 2.80537V2.83221C0.779487 2.89933 0.834188 2.96644 0.916239 2.96644H2.05128L1.51795 5.00671H0.355555C0.287179 5.00671 0.246154 5.04698 0.218803 5.10067L0 5.90604V5.93289C0 6 0.0547009 6.06711 0.136752 6.06711H1.23077L0.765812 7.83893V7.86577C0.765812 7.93289 0.820513 8 0.902564 8H1.7641C1.83248 8 1.88718 7.95973 1.90085 7.89262L2.37949 6.05369H4.5265L4.06154 7.8255V7.85235C4.06154 7.91946 4.11624 7.98658 4.19829 7.98658H5.05983C5.12821 7.98658 5.18291 7.94631 5.19658 7.87919L5.67521 6.04027H6.86496C6.93333 6.04027 6.98803 6 7.00171 5.93289L7.22051 5.12752C7.22051 5.11409 7.22051 5.10067 7.22051 5.10067C7.22051 5.03356 7.16581 4.96644 7.08376 4.96644H5.96239L6.49573 2.92617H7.64444C7.71282 2.92617 7.76752 2.88591 7.7812 2.81879L8 2.01342C8 2 8 1.98658 8 1.98658C8 1.97315 7.93162 1.91946 7.86325 1.91946ZM4.82735 5.03356H2.66667L3.2 2.99329H5.34701L4.82735 5.03356Z" fill="black"/>
</svg>
