<svg width="24" height="24" viewBox="0 0 24 24" fill="none" xmlns="http://www.w3.org/2000/svg">
<path d="M11.9988 9.99982V18.9998M11.9988 9.99982L14.9988 12.9998M11.9988 9.99982L8.9988 12.9998M17.4988 14.9998C19.0178 14.9998 19.9988 13.7688 19.9988 12.2498C19.9987 11.6484 19.8016 11.0637 19.4374 10.585C19.0733 10.1064 18.5624 9.76033 17.9828 9.59982C17.8936 8.47828 17.4288 7.41959 16.6635 6.59491C15.8982 5.77024 14.8771 5.22778 13.7653 5.05525C12.6535 4.88271 11.5161 5.09018 10.5368 5.64411C9.55752 6.19804 8.79369 7.06606 8.36879 8.10782C7.47422 7.85984 6.51778 7.97739 5.70987 8.4346C4.90196 8.89182 4.30877 9.65124 4.0608 10.5458C3.81282 11.4404 3.93037 12.3968 4.38758 13.2047C4.84479 14.0127 5.60422 14.6058 6.4988 14.8538" stroke="white" stroke-width="1.5" stroke-linecap="round" stroke-linejoin="round"/>
</svg>
