<svg width="23" height="17" viewBox="0 0 23 17" fill="none" xmlns="http://www.w3.org/2000/svg">
<path d="M14.875 6.24946L19.9971 3.68896C20.1686 3.60328 20.3591 3.56283 20.5506 3.57145C20.7421 3.58008 20.9282 3.63749 21.0913 3.73824C21.2544 3.839 21.389 3.97975 21.4824 4.14714C21.5758 4.31454 21.6249 4.50302 21.625 4.69471V12.3042C21.6249 12.4959 21.5758 12.6844 21.4824 12.8518C21.389 13.0192 21.2544 13.1599 21.0913 13.2607C20.9282 13.3614 20.7421 13.4188 20.5506 13.4275C20.3591 13.4361 20.1686 13.3956 19.9971 13.31L14.875 10.7495V6.24946Z" stroke="#303133" stroke-width="2.25" stroke-linecap="round" stroke-linejoin="round"/>
<path d="M12.625 1.75H3.625C2.38236 1.75 1.375 2.75736 1.375 4V13C1.375 14.2426 2.38236 15.25 3.625 15.25H12.625C13.8676 15.25 14.875 14.2426 14.875 13V4C14.875 2.75736 13.8676 1.75 12.625 1.75Z" stroke="#303133" stroke-width="2.25" stroke-linecap="round" stroke-linejoin="round"/>
<path d="M5.875 8.5H10.375" stroke="#303133" stroke-width="2.25" stroke-linecap="round" stroke-linejoin="round"/>
<path d="M8.125 6.25V10.75" stroke="#303133" stroke-width="2.25" stroke-linecap="round" stroke-linejoin="round"/>
</svg>
