<svg width="8" height="15" viewBox="0 0 8 15" fill="none" xmlns="http://www.w3.org/2000/svg">
<path d="M7.85168 6.26056C7.80027 6.154 7.74518 6.04744 7.69009 5.94468C7.63501 5.84192 7.52116 5.64402 7.43302 5.4956V5.47657C7.43302 5.44612 7.43302 5.43851 7.43302 5.40806C7.41197 5.38136 7.38391 5.36153 7.35223 5.35097C7.35223 5.32814 7.31918 5.35097 7.30082 5.35097C7.22737 5.32814 7.1429 5.31292 7.10251 5.29769C6.87114 5.22919 6.63611 5.16829 6.40107 5.1074C5.56375 4.88666 4.71909 4.68496 3.8781 4.48325L4.37756 1.98664C4.4148 1.96364 4.44233 1.92695 4.45467 1.88388C4.45939 1.85192 4.45793 1.81931 4.45036 1.78795C4.4428 1.75658 4.42928 1.72709 4.41061 1.7012C4.38857 1.64792 4.36287 1.59844 4.33716 1.54516L4.18291 1.25211C4.12782 1.15316 4.07274 1.05801 4.01031 0.966674L3.91115 0.833474L3.93319 0.723102C3.93319 0.673627 3.89279 0.662212 3.85606 0.6546L0.811612 0C0.734491 0 0.532509 0.0494754 0.521492 0.148427C0.374594 1.84836 0.22402 3.54702 0.0697773 5.24441C0.0477426 5.49179 0.0403969 5.74678 0 6.00557C0 6.0246 2.68967e-06 6.03221 0.0257098 6.04363C0.0514169 6.05505 0.0257098 6.06266 0.0257098 6.06647H0.0477435L0.0697773 6.14639C0.0842682 6.20226 0.102683 6.25695 0.124867 6.31004C0.168937 6.42802 0.213003 6.546 0.253399 6.66398C0.293796 6.78196 0.334196 6.89233 0.37092 7.00651L0.426005 7.18157C0.43878 7.24412 0.457227 7.30529 0.481095 7.36425C0.536181 7.45939 0.653699 7.38708 0.68675 7.29955L1.81419 7.68013C1.82155 7.68413 1.82974 7.68622 1.83806 7.68622C1.84637 7.68622 1.85457 7.68413 1.86193 7.68013L3.37498 8.1863L2.1594 12.9055L1.95007 13.7276C1.92804 13.8037 2.01617 13.7999 2.11165 13.7732C2.14372 13.9606 2.18541 14.1461 2.23652 14.3289L2.33567 14.6752C2.33567 14.7323 2.36873 14.7894 2.38342 14.8465C2.39811 14.9036 2.40545 14.9568 2.46054 14.9873C2.51563 15.0177 2.53399 14.9873 2.56337 14.9606C2.64348 14.9458 2.7183 14.909 2.78004 14.8541C3.8377 13.1542 4.89904 11.4568 5.96405 9.76191C6.53328 8.85613 7.09884 7.94654 7.68275 7.05217L7.87372 6.76674L7.89575 6.74009C7.95451 6.72106 8.0096 6.66398 7.99858 6.60689C7.97089 6.48297 7.92106 6.3655 7.85168 6.26056ZM3.74957 3.24636L3.70182 3.20449L3.55126 3.06749L3.44108 2.96854L3.54758 2.42811L3.6651 2.53086C3.70547 2.56717 3.74844 2.60025 3.79363 2.62982L3.86341 2.67929L3.74957 3.24636ZM3.3052 3.62694C3.34192 3.45948 3.37498 3.28822 3.40803 3.11696L3.44108 3.15883L3.57329 3.31106L3.63939 3.38717C3.65874 3.40931 3.681 3.42853 3.7055 3.44426L3.62837 3.84768L3.3052 3.62694ZM3.60634 3.95043L3.52555 4.33101L3.17667 4.24729C3.21706 4.05319 3.25746 3.86671 3.29418 3.6688L3.57329 3.92379C3.57279 3.93029 3.57353 3.93684 3.57548 3.94304C3.57742 3.94924 3.58054 3.95498 3.58463 3.95993C3.58873 3.96488 3.59373 3.96895 3.59934 3.97189C3.60496 3.97483 3.61108 3.97659 3.61736 3.97707L3.60634 3.95043ZM3.88544 2.54989H3.86341C3.81934 2.51945 3.77527 2.48519 3.72753 2.45855L3.56227 2.36722C3.59533 2.20737 3.6247 2.04372 3.65775 1.88388C3.71852 1.9157 3.77739 1.95128 3.83403 1.99044L3.96624 2.08939L3.88544 2.54989ZM3.96257 1.34345C4.00664 1.4424 4.0507 1.54135 4.0911 1.64411L4.12416 1.73165H4.08376V1.78873C4.08469 1.85577 4.07088 1.92215 4.04336 1.98283C4.00126 1.94757 3.95571 1.91696 3.90748 1.89149C3.83193 1.85381 3.75327 1.82324 3.67244 1.80015C3.72386 1.54896 3.77527 1.29778 3.82301 1.03899C3.8781 1.15316 3.92584 1.25592 3.97359 1.35487L3.96257 1.34345ZM0.716131 6.92278C0.678207 6.92481 0.640203 6.92481 0.60228 6.92278L0.56923 6.82763C0.531203 6.71353 0.487065 6.60172 0.437022 6.49272C0.385607 6.38235 0.334192 6.27579 0.275433 6.17303C0.25679 6.13741 0.235937 6.10309 0.213002 6.07027L0.561889 6.18825C0.569527 6.25942 0.584295 6.32957 0.605956 6.39757C0.627991 6.48511 0.653697 6.56883 0.679404 6.65256C0.705111 6.73629 0.734489 6.82382 0.763869 6.90375C0.753201 6.91578 0.740819 6.92605 0.727148 6.93419L0.716131 6.92278ZM0.969525 7.03314C0.96262 7.00596 0.954036 6.97927 0.94382 6.95322C0.94382 6.91136 0.910767 6.86949 0.896077 6.83144L0.796925 6.58025L0.697767 6.34049C0.697767 6.29862 0.668386 6.24915 0.650024 6.20348L1.12744 6.36332C1.17565 6.52193 1.21488 6.68331 1.24496 6.84666C1.24496 6.93419 1.28169 7.01792 1.29638 7.10545C1.29809 7.11808 1.29809 7.13089 1.29638 7.14351L0.969525 7.03314ZM1.5057 7.21202C1.50724 7.19429 1.50724 7.17646 1.5057 7.15874C1.5057 7.11307 1.48734 7.0712 1.48 7.02553C1.47265 6.97986 1.4396 6.85046 1.41022 6.76674C1.38084 6.68301 1.31841 6.52697 1.267 6.40899L1.60118 6.51936C1.59809 6.52795 1.59809 6.53741 1.60118 6.546C1.67204 6.78883 1.72483 7.03694 1.7591 7.28813L1.5057 7.21202ZM1.91702 7.34903C1.85599 7.07447 1.77245 6.80582 1.66729 6.546L2.10431 6.69062C2.15573 6.85427 2.19612 7.01792 2.23285 7.18157L2.27692 7.43656C2.27897 7.44915 2.27897 7.46202 2.27692 7.47462L1.91702 7.34903ZM2.48257 7.53932C2.48257 7.53932 2.48257 7.50506 2.48257 7.48604C2.48257 7.46701 2.48257 7.3985 2.45686 7.35664C2.43116 7.31478 2.40545 7.19299 2.37975 7.11307C2.35404 7.03315 2.28059 6.85427 2.2255 6.73249L2.56337 6.84666C2.56337 6.91897 2.5854 6.99509 2.60377 7.0712C2.62213 7.14732 2.65151 7.25768 2.67354 7.35283C2.69558 7.44798 2.72128 7.53932 2.75066 7.63066L2.48257 7.53932ZM3.00039 7.71058C2.9934 7.68837 2.98481 7.66674 2.97468 7.64588L2.92694 7.51267C2.89756 7.42514 2.86451 7.34141 2.82778 7.25768C2.79106 7.17396 2.76168 7.09023 2.72496 7.00651C2.70637 6.96226 2.68552 6.91906 2.66252 6.8771L3.10689 7.02553C3.10689 7.1803 3.1179 7.33634 3.13994 7.49365C3.13994 7.57738 3.13994 7.6573 3.16932 7.74102C3.16932 7.74102 3.16932 7.76005 3.16932 7.77147L3.00039 7.71058ZM3.33091 7.68013C3.30887 7.60021 3.28684 7.52029 3.26848 7.43656C3.25011 7.35283 3.20972 7.18157 3.18768 7.05598L3.59899 7.19299C3.54024 7.41372 3.48515 7.63446 3.42639 7.859L3.37498 7.83997C3.37655 7.82479 3.37655 7.80948 3.37498 7.79431C3.38232 7.78289 3.35294 7.72961 3.34192 7.69155L3.33091 7.68013ZM3.76425 7.88184L3.97359 7.06359C3.97576 7.05 3.97276 7.03606 3.96523 7.0247C3.9577 7.01335 3.94621 7.00546 3.93319 7.0027L0.33787 5.80006C0.437026 5.16449 0.459059 4.49847 0.514145 3.85529C0.605956 2.81249 0.701438 1.7659 0.793249 0.719299L0.837322 0.213125L3.52555 0.79161C3.28317 1.99425 3.04446 3.19308 2.79106 4.39572C2.78973 4.40918 2.79307 4.42269 2.80047 4.43385C2.80787 4.445 2.81885 4.45307 2.83146 4.45661C3.75691 4.67734 4.68114 4.90315 5.60415 5.13404C6.06321 5.25202 6.53695 5.35478 6.98499 5.51462L7.0364 5.53365C6.98866 5.59835 6.94459 5.67066 6.90052 5.73536C5.62251 7.67252 4.41428 9.66296 3.18401 11.6306L2.53399 12.7304C2.9502 11.1168 3.36396 9.50438 3.77528 7.89325L3.76425 7.88184ZM2.57071 14.6866C2.57024 14.6778 2.57024 14.6689 2.57071 14.66L2.51563 14.4925C2.48257 14.386 2.44952 14.2756 2.4128 14.169C2.36189 13.9972 2.29931 13.8293 2.2255 13.6667C2.24955 13.6533 2.27178 13.6367 2.29161 13.6172L2.53031 13.2366V13.2899C2.56336 13.4155 2.59642 13.5411 2.64049 13.6705C2.68456 13.7999 2.72863 13.9064 2.77637 14.0244L2.84614 14.1843C2.76535 14.3555 2.6662 14.523 2.58173 14.6981L2.57071 14.6866ZM3.04446 13.8227L2.95999 13.9711L2.9196 13.8988C2.86818 13.7961 2.81677 13.6895 2.76902 13.583C2.72128 13.4764 2.66987 13.3698 2.6258 13.2595C2.6258 13.2214 2.59642 13.1833 2.57806 13.1453C2.68823 12.9664 2.80208 12.7913 2.91225 12.6163C2.91967 12.6413 2.9258 12.6667 2.93061 12.6924C2.95632 12.7913 2.98203 12.8865 3.01508 12.9854C3.04813 13.0844 3.07383 13.1681 3.11056 13.2557C3.14728 13.3432 3.15096 13.3432 3.16932 13.3889C3.18657 13.4302 3.21453 13.4658 3.25011 13.4916C3.19135 13.6134 3.12158 13.7238 3.05547 13.8341L3.04446 13.8227ZM3.33825 13.3432C3.31667 13.2775 3.28964 13.2138 3.25746 13.1529C3.21706 13.0654 3.17299 12.9816 3.13627 12.8941C3.09954 12.8066 3.05915 12.7228 3.02609 12.6353L2.98203 12.5021C3.07384 12.3499 3.16932 12.2014 3.26113 12.053C3.3052 12.1938 3.3456 12.3346 3.38599 12.4717C3.42562 12.648 3.48735 12.8181 3.56961 12.9778L3.33825 13.3432ZM3.67244 12.8142V12.837C3.62782 12.6938 3.57384 12.5539 3.51086 12.4184C3.44476 12.2776 3.38232 12.1329 3.31989 11.9921L3.62837 11.4974C3.69154 11.6203 3.74675 11.7474 3.79363 11.8779C3.82971 11.9698 3.86037 12.0639 3.88544 12.1596C3.91115 12.2395 3.92951 12.3232 3.95522 12.4031L3.67244 12.8142ZM4.06173 12.1862L4.01765 12.0568C3.98093 11.9617 3.94421 11.8665 3.90014 11.779C3.83544 11.6469 3.76181 11.5197 3.67979 11.3984L4.04703 10.8085C4.12029 10.962 4.18527 11.1195 4.24167 11.2804L4.32981 11.5621C4.32981 11.6077 4.35552 11.6496 4.36653 11.6953L4.06173 12.1862ZM4.48772 11.5012C4.48772 11.5012 4.48772 11.4707 4.48772 11.4555C4.45467 11.3642 4.41795 11.2766 4.37756 11.1891C4.29875 11.0264 4.21045 10.8688 4.11314 10.7172C4.19761 10.5764 4.28941 10.4355 4.37388 10.2947C4.42897 10.4279 4.47671 10.5611 4.54281 10.6753C4.60892 10.7895 4.6383 10.8504 4.68971 10.9379L4.76683 11.0635L4.48772 11.5012ZM4.85497 10.8999L4.81457 10.8428C4.75214 10.7628 4.69338 10.6791 4.63463 10.5954C4.57587 10.5117 4.47671 10.3442 4.39959 10.2148C4.47671 10.0968 4.55016 9.97504 4.62361 9.85706C4.7044 9.98265 4.7852 10.1082 4.85864 10.2376C4.93209 10.367 4.95412 10.4165 4.99819 10.5079L5.04227 10.5916L4.85497 10.8999ZM5.14877 10.4279V10.4051C5.09735 10.3176 5.0386 10.2338 4.97984 10.1501C4.92108 10.0664 4.78887 9.90273 4.68604 9.76952C4.77051 9.63632 4.8513 9.50312 4.93576 9.38894C4.99452 9.52595 5.05328 9.66296 5.11571 9.79997C5.17815 9.93698 5.20752 9.98645 5.25159 10.0778C5.29566 10.1691 5.29199 10.1577 5.31035 10.1996L5.14877 10.4279ZM5.40584 10.0207L5.37646 9.96743L5.21854 9.69721C5.14142 9.56401 5.05328 9.43461 4.97249 9.31663C5.03859 9.20626 5.10837 9.0997 5.17815 8.98933L5.2112 9.0312C5.27363 9.09589 5.32872 9.16821 5.38748 9.24052C5.44624 9.31283 5.49398 9.38514 5.54539 9.46125L5.62618 9.57543C5.6407 9.59097 5.6542 9.60749 5.66658 9.6249C5.58579 9.76191 5.51234 9.89512 5.4242 10.0321L5.40584 10.0207ZM5.77308 9.42319C5.74737 9.38514 5.72534 9.34708 5.69596 9.30902C5.63491 9.23553 5.56992 9.16565 5.50132 9.0997C5.43889 9.035 5.36911 8.97031 5.29934 8.90941L5.23323 8.86374L5.44256 8.52502L5.50499 8.42988C5.57477 8.5136 5.64455 8.60114 5.718 8.68106C5.79144 8.76098 5.8502 8.82568 5.9163 8.89799L6.02281 9.00836C5.97874 9.1644 5.8906 9.30521 5.80614 9.43461L5.77308 9.42319ZM6.14032 8.85232L6.04484 8.77621C5.96772 8.71151 5.8906 8.64681 5.81715 8.5783C5.7437 8.5098 5.64822 8.41846 5.56742 8.33854C5.63353 8.22817 5.7033 8.12161 5.77308 8.01124C5.8502 8.09116 5.92732 8.16727 5.9971 8.251L6.15869 8.4451L6.23581 8.54786C6.25352 8.57001 6.27319 8.5904 6.29457 8.60875C6.27253 8.70389 6.21745 8.78382 6.1697 8.86374L6.14032 8.85232ZM6.40842 8.42988V8.40704L6.32028 8.3157C6.26152 8.25481 6.19909 8.19391 6.13298 8.13683C6.06688 8.07974 5.95303 7.98079 5.86122 7.90468C5.91998 7.80573 5.98608 7.70677 6.04851 7.60782C6.26765 7.74376 6.46064 7.92054 6.61774 8.12922L6.40842 8.42988ZM6.70955 7.95796C6.5358 7.7671 6.33061 7.60987 6.1036 7.49365L6.43045 6.97606C6.52617 7.05499 6.61693 7.14016 6.70221 7.23105C6.74995 7.28433 6.79769 7.34141 6.84911 7.39469C6.90052 7.44798 6.89685 7.45179 6.92256 7.48223C6.93455 7.50234 6.95089 7.51928 6.9703 7.5317L6.70955 7.95796ZM7.09883 7.34522L7.01804 7.2653C6.9588 7.21164 6.89623 7.16206 6.83074 7.11687C6.72232 7.04234 6.60948 6.97498 6.49288 6.91516L6.72792 6.53458C6.82107 6.60836 6.90941 6.68846 6.99233 6.77435C7.04742 6.83905 7.10251 6.89994 7.15392 6.96844L7.23472 7.0712C7.24242 7.08548 7.25235 7.09834 7.2641 7.10926L7.09883 7.34522ZM7.37426 6.91136L7.2898 6.82763C7.22972 6.76284 7.16595 6.70183 7.09883 6.64495C6.99804 6.56238 6.89257 6.48613 6.783 6.4166C6.84911 6.31385 6.91888 6.21109 6.98499 6.10452L7.23839 6.42041L7.36325 6.57645L7.42568 6.65637L7.45506 6.69062L7.49546 6.72487L7.37426 6.91136ZM7.64603 6.45466C7.61592 6.50471 7.5815 6.55185 7.5432 6.59548L7.46975 6.51936C7.42201 6.46988 7.37426 6.42041 7.32285 6.37474L7.0364 6.08169C7.0364 6.08169 7.0364 6.08169 7.01437 6.08169C7.06945 5.99035 7.12454 5.90282 7.1833 5.81528L7.32653 5.59835C7.38161 5.74297 7.43303 5.88759 7.49913 6.02841C7.56524 6.16922 7.59094 6.23773 7.63868 6.34429L7.69377 6.46607L7.64603 6.45466Z" fill="#F21C29"/>
</svg>
